<svg width="316" height="353" viewBox="0 0 316 353" fill="none" xmlns="http://www.w3.org/2000/svg">
<path d="M316 269.974H0V270.15H316V269.974Z" fill="#EBEBEB"/>
<path d="M284.337 281.334H263.405V281.509H284.337V281.334Z" fill="#EBEBEB"/>
<path d="M209.331 283.254H203.839V283.43H209.331V283.254Z" fill="#EBEBEB"/>
<path d="M262.773 274.782H250.645V274.958H262.773V274.782Z" fill="#EBEBEB"/>
<path d="M60.4508 275.968H33.1547V276.144H60.4508V275.968Z" fill="#EBEBEB"/>
<path d="M70.0825 275.968H66.0819V276.144H70.0825V275.968Z" fill="#EBEBEB"/>
<path d="M142.295 278.948H83.0891V279.123H142.295V278.948Z" fill="#EBEBEB"/>
<path d="M149.784 238.487H27.7511C26.7951 238.485 25.8788 238.059 25.2034 237.304C24.528 236.548 24.1487 235.523 24.1487 234.456V42.826C24.157 41.7642 24.54 40.7489 25.2145 40.0007C25.889 39.2525 26.8006 38.8318 27.7511 38.83H149.784C150.741 38.83 151.659 39.2547 152.336 40.0107C153.013 40.7668 153.393 41.7921 153.393 42.8613V234.456C153.393 235.525 153.013 236.55 152.336 237.306C151.659 238.062 150.741 238.487 149.784 238.487ZM27.7511 38.9712C26.837 38.9731 25.9609 39.38 25.3152 40.1027C24.6694 40.8254 24.3067 41.8049 24.3067 42.826V234.456C24.3067 235.477 24.6694 236.456 25.3152 237.179C25.9609 237.901 26.837 238.308 27.7511 238.31H149.784C150.699 238.308 151.575 237.902 152.222 237.179C152.869 236.457 153.233 235.477 153.235 234.456V42.826C153.233 41.8042 152.869 40.8248 152.222 40.1023C151.575 39.3798 150.699 38.9731 149.784 38.9712H27.7511Z" fill="#EBEBEB"/>
<path d="M286.492 238.487H164.453C163.496 238.485 162.579 238.06 161.903 237.304C161.226 236.548 160.846 235.524 160.844 234.456V42.826C160.854 41.7635 161.238 40.7483 161.914 40.0003C162.589 39.2523 163.502 38.8318 164.453 38.83H286.492C287.441 38.8337 288.351 39.2552 289.024 40.0032C289.698 40.7512 290.08 41.7654 290.088 42.826V234.456C290.088 235.522 289.71 236.545 289.036 237.301C288.361 238.057 287.447 238.483 286.492 238.487ZM164.453 38.9712C163.538 38.9731 162.661 39.3798 162.015 40.1023C161.368 40.8248 161.004 41.8042 161.002 42.826V234.456C161.004 235.477 161.368 236.457 162.015 237.179C162.661 237.902 163.538 238.308 164.453 238.31H286.492C287.407 238.308 288.283 237.902 288.93 237.179C289.577 236.457 289.941 235.477 289.943 234.456V42.826C289.941 41.8042 289.577 40.8248 288.93 40.1023C288.283 39.3798 287.407 38.9731 286.492 38.9712H164.453Z" fill="#EBEBEB"/>
<path d="M120.067 90.5233H41.2064V181.548H120.067V90.5233Z" fill="#EBEBEB"/>
<path d="M122.823 90.5233H43.9619V181.548H122.823V90.5233Z" fill="#F0F0F0"/>
<path d="M120.731 92.6766H45.9464V179.43H120.731V92.6766Z" fill="#E0E0E0"/>
<path d="M118.86 92.6766H45.9464V179.43H118.86V92.6766Z" fill="#F5F5F5"/>
<path d="M83.1586 92.6766H81.6797V179.43H83.1586V92.6766Z" fill="#EBEBEB"/>
<path d="M73.154 92.6766L52.3738 179.43H50.3767L71.1569 92.6766H73.154Z" fill="white"/>
<path d="M83.7969 91.3423H82.5266V181.096H83.7969V91.3423Z" fill="#F0F0F0"/>
<path d="M65.6079 92.6766L45.9464 174.777V129.65L54.8007 92.6766H65.6079Z" fill="white"/>
<path d="M118.86 100.549V108.879L101.961 179.43H99.9634L118.86 100.549Z" fill="white"/>
<path d="M118.86 117.365V162.493L114.809 179.43H103.996L118.86 117.365Z" fill="white"/>
<path d="M106.991 209.682H115.024V209.082C115.024 207.917 113.848 206.964 112.452 207.049L109.292 207.19C108.028 207.253 106.991 208.143 106.991 209.223V209.682Z" fill="#F0F0F0"/>
<path d="M122.842 209.971H133.434L135.122 193.444C135.109 193.146 134.994 192.865 134.801 192.659C134.608 192.453 134.352 192.337 134.085 192.336H126.988C126.72 192.335 126.463 192.451 126.27 192.657C126.077 192.864 125.963 193.146 125.951 193.444L122.842 209.971Z" fill="#E6E6E6"/>
<path d="M106.675 168.028H109.336L112.313 199.233H109.665C109.45 199.232 109.242 199.146 109.078 198.991C108.914 198.837 108.804 198.622 108.767 198.386L105.967 168.953C105.947 168.838 105.951 168.72 105.977 168.606C106.004 168.493 106.053 168.388 106.121 168.299C106.189 168.21 106.275 168.14 106.371 168.093C106.466 168.046 106.571 168.024 106.675 168.028Z" fill="#E6E6E6"/>
<path d="M110.764 199.254H150.416C150.517 199.256 150.618 199.234 150.71 199.189C150.803 199.143 150.886 199.076 150.953 198.992C151.02 198.907 151.07 198.807 151.1 198.699C151.129 198.591 151.138 198.477 151.124 198.365L148.324 168.932C148.296 168.692 148.191 168.471 148.03 168.31C147.869 168.148 147.662 168.055 147.446 168.049H107.794C107.693 168.046 107.593 168.068 107.5 168.112C107.407 168.157 107.324 168.223 107.257 168.307C107.19 168.391 107.139 168.491 107.11 168.598C107.08 168.706 107.072 168.82 107.086 168.932L109.886 198.386C109.918 198.623 110.024 198.839 110.184 198.998C110.345 199.156 110.55 199.247 110.764 199.254Z" fill="#EBEBEB"/>
<path d="M111.504 196.367H148.88C148.968 196.367 149.055 196.347 149.136 196.308C149.217 196.268 149.289 196.211 149.349 196.138C149.408 196.066 149.453 195.98 149.482 195.887C149.51 195.794 149.52 195.695 149.512 195.597L147.066 169.92C147.044 169.71 146.954 169.515 146.813 169.373C146.673 169.23 146.491 169.149 146.302 169.143H108.913C108.824 169.143 108.736 169.163 108.655 169.203C108.574 169.243 108.501 169.301 108.442 169.375C108.382 169.448 108.337 169.534 108.309 169.628C108.281 169.722 108.272 169.822 108.281 169.92L110.726 195.597C110.751 195.809 110.843 196.003 110.986 196.145C111.129 196.286 111.313 196.365 111.504 196.367Z" fill="#FAFAFA"/>
<path d="M122.444 208.687H135.476C135.628 208.687 135.774 208.754 135.882 208.875C135.99 208.995 136.051 209.159 136.051 209.329C136.051 209.499 135.99 209.663 135.882 209.783C135.774 209.904 135.628 209.971 135.476 209.971H122.444C122.291 209.971 122.145 209.904 122.037 209.783C121.929 209.663 121.869 209.499 121.869 209.329C121.869 209.159 121.929 208.995 122.037 208.875C122.145 208.754 122.291 208.687 122.444 208.687Z" fill="#E6E6E6"/>
<path d="M90.357 215.041H122.621V209.604H90.357V215.041Z" fill="#E6E6E6"/>
<path d="M180.265 270.327H181.068C181.092 270.327 181.116 270.322 181.138 270.312C181.16 270.302 181.181 270.286 181.198 270.267C181.215 270.248 181.228 270.226 181.237 270.201C181.247 270.176 181.251 270.15 181.251 270.123L182.515 215.055H178.793L180.057 270.123C180.058 270.151 180.065 270.18 180.076 270.205C180.088 270.231 180.104 270.254 180.123 270.273C180.142 270.292 180.165 270.307 180.189 270.316C180.214 270.326 180.24 270.329 180.265 270.327Z" fill="#E6E6E6"/>
<path d="M208.983 270.327H210.842L205.59 215.033H201.867L208.983 270.327Z" fill="#F0F0F0"/>
<path d="M89.0993 270.327L96.2283 215.033H92.5122L87.2539 270.327H89.0993Z" fill="#E6E6E6"/>
<path d="M113.419 215.041H207.738V209.604H113.419V215.041Z" fill="#F5F5F5"/>
<path d="M116.364 270.327H118.5L119.29 215.033H115.574L116.364 270.327Z" fill="#F0F0F0"/>
<path d="M146.491 208.623H147.484C147.533 208.621 147.581 208.598 147.616 208.559C147.651 208.52 147.672 208.467 147.673 208.411V207.246C147.673 207.218 147.668 207.191 147.659 207.165C147.649 207.14 147.635 207.116 147.618 207.097C147.6 207.077 147.579 207.061 147.556 207.051C147.533 207.04 147.508 207.035 147.484 207.035H146.769C146.729 207.035 146.689 207.05 146.657 207.078C146.625 207.106 146.602 207.146 146.592 207.19L146.314 208.355C146.307 208.386 146.305 208.418 146.311 208.45C146.316 208.481 146.327 208.511 146.344 208.537C146.361 208.563 146.384 208.584 146.409 208.599C146.434 208.614 146.463 208.622 146.491 208.623Z" fill="#F5F5F5"/>
<path d="M145.126 208.623H146.118C146.168 208.621 146.214 208.598 146.248 208.559C146.283 208.519 146.302 208.466 146.302 208.411V207.246C146.303 207.219 146.298 207.191 146.29 207.166C146.281 207.14 146.267 207.117 146.25 207.097C146.233 207.077 146.213 207.061 146.19 207.051C146.167 207.04 146.143 207.034 146.118 207.035H145.404C145.364 207.035 145.324 207.05 145.292 207.078C145.26 207.106 145.237 207.146 145.227 207.19L144.943 208.355C144.936 208.386 144.936 208.419 144.942 208.45C144.948 208.482 144.96 208.511 144.978 208.537C144.995 208.563 145.018 208.584 145.043 208.599C145.069 208.613 145.097 208.622 145.126 208.623Z" fill="#F5F5F5"/>
<path d="M143.761 208.623H144.728C144.777 208.621 144.824 208.598 144.858 208.559C144.892 208.519 144.911 208.466 144.911 208.411V207.246C144.912 207.219 144.908 207.191 144.899 207.166C144.89 207.14 144.877 207.117 144.86 207.097C144.843 207.077 144.822 207.061 144.8 207.051C144.777 207.04 144.753 207.034 144.728 207.035H144.014C143.973 207.036 143.933 207.051 143.9 207.079C143.867 207.107 143.843 207.146 143.831 207.19L143.552 208.355C143.545 208.389 143.545 208.424 143.553 208.457C143.56 208.491 143.575 208.522 143.595 208.549C143.616 208.575 143.641 208.595 143.67 208.608C143.699 208.621 143.73 208.626 143.761 208.623Z" fill="#F5F5F5"/>
<path d="M142.396 208.623H143.382C143.432 208.623 143.48 208.601 143.516 208.561C143.551 208.521 143.571 208.467 143.571 208.411V207.246C143.572 207.218 143.568 207.19 143.559 207.164C143.55 207.138 143.536 207.114 143.518 207.094C143.5 207.074 143.479 207.059 143.455 207.049C143.432 207.038 143.407 207.034 143.382 207.035H142.674C142.633 207.036 142.593 207.051 142.56 207.079C142.527 207.107 142.503 207.146 142.491 207.19L142.213 208.355C142.205 208.386 142.204 208.419 142.209 208.451C142.215 208.484 142.227 208.514 142.245 208.54C142.262 208.566 142.285 208.587 142.312 208.601C142.338 208.616 142.367 208.623 142.396 208.623Z" fill="#F5F5F5"/>
<path d="M141.031 208.623H142.017C142.067 208.623 142.115 208.601 142.151 208.561C142.186 208.521 142.206 208.467 142.206 208.411V207.246C142.207 207.218 142.203 207.19 142.194 207.164C142.184 207.138 142.171 207.114 142.153 207.094C142.135 207.074 142.114 207.059 142.09 207.049C142.067 207.038 142.042 207.034 142.017 207.035H141.309C141.267 207.034 141.227 207.05 141.194 207.078C141.161 207.106 141.137 207.145 141.126 207.19L140.848 208.355C140.84 208.386 140.839 208.419 140.844 208.451C140.85 208.484 140.862 208.514 140.88 208.54C140.897 208.566 140.92 208.587 140.946 208.601C140.973 208.616 141.002 208.623 141.031 208.623Z" fill="#F5F5F5"/>
<path d="M139.672 208.623H140.658C140.683 208.623 140.707 208.618 140.73 208.607C140.753 208.596 140.774 208.581 140.792 208.561C140.81 208.541 140.824 208.518 140.833 208.492C140.843 208.467 140.848 208.439 140.848 208.411V207.246C140.848 207.218 140.844 207.19 140.835 207.164C140.826 207.138 140.812 207.114 140.794 207.094C140.776 207.074 140.755 207.059 140.732 207.049C140.708 207.038 140.683 207.034 140.658 207.035H139.95C139.909 207.034 139.868 207.05 139.835 207.078C139.802 207.106 139.778 207.145 139.767 207.19L139.489 208.355C139.481 208.386 139.48 208.419 139.485 208.451C139.491 208.484 139.503 208.514 139.521 208.54C139.538 208.566 139.561 208.587 139.588 208.601C139.614 208.616 139.643 208.623 139.672 208.623Z" fill="#F5F5F5"/>
<path d="M138.301 208.623H139.286C139.337 208.623 139.385 208.601 139.421 208.561C139.456 208.521 139.476 208.467 139.476 208.411V207.246C139.477 207.218 139.473 207.19 139.463 207.164C139.454 207.138 139.44 207.114 139.423 207.094C139.405 207.074 139.383 207.059 139.36 207.049C139.337 207.038 139.312 207.034 139.286 207.035H138.579C138.537 207.033 138.496 207.048 138.462 207.076C138.429 207.104 138.405 207.144 138.395 207.19L138.117 208.355C138.109 208.386 138.108 208.419 138.114 208.451C138.119 208.484 138.132 208.514 138.149 208.54C138.167 208.566 138.19 208.587 138.216 208.601C138.242 208.616 138.271 208.623 138.301 208.623Z" fill="#F5F5F5"/>
<path d="M136.935 208.623H137.921C137.971 208.621 138.018 208.598 138.054 208.559C138.089 208.52 138.109 208.467 138.111 208.411V207.246C138.111 207.218 138.106 207.191 138.097 207.165C138.087 207.14 138.073 207.116 138.055 207.097C138.038 207.077 138.017 207.061 137.994 207.051C137.971 207.04 137.946 207.035 137.921 207.035H137.214C137.172 207.033 137.131 207.048 137.097 207.076C137.064 207.104 137.04 207.144 137.03 207.19L136.752 208.355C136.744 208.386 136.743 208.419 136.749 208.451C136.754 208.484 136.766 208.514 136.784 208.54C136.802 208.566 136.825 208.587 136.851 208.601C136.877 208.616 136.906 208.623 136.935 208.623Z" fill="#F5F5F5"/>
<path d="M135.564 208.623H136.556C136.606 208.621 136.653 208.598 136.689 208.559C136.724 208.52 136.744 208.467 136.746 208.411V207.246C136.746 207.218 136.741 207.191 136.731 207.165C136.722 207.14 136.708 207.116 136.69 207.097C136.673 207.077 136.652 207.061 136.629 207.051C136.606 207.04 136.581 207.035 136.556 207.035H135.88C135.838 207.033 135.797 207.048 135.764 207.076C135.73 207.104 135.707 207.144 135.697 207.19L135.419 208.355C135.411 208.383 135.409 208.413 135.412 208.442C135.416 208.471 135.424 208.5 135.438 208.525C135.452 208.55 135.47 208.572 135.492 208.589C135.513 208.606 135.538 208.617 135.564 208.623Z" fill="#F5F5F5"/>
<path d="M134.199 208.623H135.191C135.241 208.621 135.288 208.598 135.323 208.559C135.359 208.52 135.379 208.467 135.381 208.411V207.246C135.381 207.218 135.376 207.191 135.366 207.165C135.357 207.14 135.343 207.116 135.325 207.097C135.308 207.077 135.287 207.061 135.264 207.051C135.241 207.04 135.216 207.035 135.191 207.035H134.477C134.436 207.035 134.397 207.05 134.365 207.078C134.333 207.106 134.31 207.146 134.3 207.19L134.016 208.355C134.009 208.386 134.009 208.419 134.015 208.45C134.021 208.482 134.033 208.511 134.051 208.537C134.068 208.563 134.091 208.584 134.116 208.599C134.142 208.613 134.17 208.622 134.199 208.623Z" fill="#F5F5F5"/>
<path d="M132.834 208.623H133.826C133.875 208.621 133.922 208.598 133.956 208.559C133.99 208.519 134.009 208.466 134.009 208.411V207.246C134.01 207.219 134.006 207.191 133.997 207.166C133.988 207.14 133.975 207.117 133.958 207.097C133.941 207.077 133.92 207.061 133.898 207.051C133.875 207.04 133.851 207.034 133.826 207.035H133.112C133.071 207.036 133.031 207.051 132.998 207.079C132.965 207.107 132.941 207.146 132.929 207.19L132.65 208.355C132.644 208.386 132.644 208.419 132.65 208.45C132.656 208.482 132.668 208.511 132.686 208.537C132.703 208.563 132.725 208.584 132.751 208.599C132.777 208.613 132.805 208.622 132.834 208.623Z" fill="#F5F5F5"/>
<path d="M131.456 208.623H132.442C132.492 208.623 132.54 208.601 132.576 208.561C132.612 208.521 132.632 208.467 132.632 208.411V207.246C132.632 207.218 132.628 207.19 132.619 207.164C132.61 207.138 132.596 207.114 132.578 207.094C132.56 207.074 132.539 207.059 132.516 207.049C132.492 207.038 132.467 207.034 132.442 207.035H131.734C131.693 207.036 131.653 207.051 131.62 207.079C131.587 207.107 131.563 207.146 131.551 207.19L131.273 208.355C131.265 208.386 131.264 208.419 131.269 208.451C131.275 208.484 131.287 208.514 131.305 208.54C131.322 208.566 131.345 208.587 131.372 208.601C131.398 208.616 131.427 208.623 131.456 208.623Z" fill="#F5F5F5"/>
<path d="M130.104 208.623H131.089C131.14 208.623 131.188 208.601 131.224 208.561C131.259 208.521 131.279 208.467 131.279 208.411V207.246C131.28 207.218 131.276 207.19 131.266 207.164C131.257 207.138 131.243 207.114 131.225 207.094C131.208 207.074 131.186 207.059 131.163 207.049C131.14 207.038 131.115 207.034 131.089 207.035H130.382C130.34 207.036 130.3 207.051 130.267 207.079C130.235 207.107 130.21 207.146 130.198 207.19L129.92 208.355C129.912 208.386 129.911 208.419 129.917 208.451C129.922 208.484 129.935 208.514 129.952 208.54C129.97 208.566 129.993 208.587 130.019 208.601C130.045 208.616 130.074 208.623 130.104 208.623Z" fill="#F5F5F5"/>
<path d="M128.738 208.623H129.724C129.775 208.623 129.823 208.601 129.858 208.561C129.894 208.521 129.914 208.467 129.914 208.411V207.246C129.915 207.218 129.911 207.19 129.901 207.164C129.892 207.138 129.878 207.114 129.86 207.094C129.843 207.074 129.821 207.059 129.798 207.049C129.775 207.038 129.749 207.034 129.724 207.035H129.017C128.975 207.034 128.934 207.05 128.901 207.078C128.868 207.106 128.844 207.145 128.833 207.19L128.555 208.355C128.547 208.386 128.546 208.419 128.552 208.451C128.557 208.484 128.569 208.514 128.587 208.54C128.605 208.566 128.628 208.587 128.654 208.601C128.68 208.616 128.709 208.623 128.738 208.623Z" fill="#F5F5F5"/>
<path d="M127.373 208.623H128.359C128.409 208.623 128.458 208.601 128.493 208.561C128.529 208.521 128.549 208.467 128.549 208.411V207.246C128.55 207.218 128.545 207.19 128.536 207.164C128.527 207.138 128.513 207.114 128.495 207.094C128.477 207.074 128.456 207.059 128.433 207.049C128.409 207.038 128.384 207.034 128.359 207.035H127.664C127.622 207.033 127.581 207.048 127.548 207.076C127.514 207.104 127.491 207.144 127.481 207.19L127.203 208.355C127.195 208.385 127.194 208.417 127.199 208.448C127.203 208.479 127.214 208.509 127.231 208.534C127.247 208.56 127.268 208.581 127.293 208.597C127.318 208.612 127.345 208.621 127.373 208.623Z" fill="#F5F5F5"/>
<path d="M126.375 209.668H148.476V207.832H126.375V209.668Z" fill="#EBEBEB"/>
<path d="M269.668 164.272V75.6267H167.55V164.272H269.668Z" fill="#E0E0E0"/>
<path d="M168.965 162.691H268.252V77.2082L168.965 77.2082V162.691Z" fill="#EBEBEB"/>
<path d="M216.94 92.6484V104.573" stroke="#E0E0E0" stroke-miterlimit="10"/>
<path d="M192.678 142.944V104.573H237.714V126.579" stroke="#E0E0E0" stroke-miterlimit="10"/>
<path d="M226.06 138.298V126.579H250.822V138.708" stroke="#E0E0E0" stroke-miterlimit="10"/>
<path d="M228.329 88.2712H205.552V97.0327H228.329V88.2712Z" fill="#F5F5F5"/>
<path d="M248.907 109.289H227.198V118.806H248.907V109.289Z" fill="#F5F5F5"/>
<path d="M233.518 133.392H218.609V143.205H233.518V133.392Z" fill="#F5F5F5"/>
<path d="M258.81 134.98H242.84V142.436H258.81V134.98Z" fill="#F5F5F5"/>
<path d="M206.866 111.301H182.199V124.016H206.866V111.301Z" fill="#F5F5F5"/>
<path d="M200.553 138.298H184.803V147.589H200.553V138.298Z" fill="#F5F5F5"/>
<path d="M220.348 104.883L216.947 101.084L213.546 104.883L216.947 108.682L220.348 104.883Z" fill="#F5F5F5"/>
<path d="M241.119 126.585L237.719 122.786L234.318 126.585L237.719 130.384L241.119 126.585Z" fill="#F5F5F5"/>
<path d="M98.6615 254.795C98.7688 254.551 98.8215 254.281 98.8151 254.009C98.8087 253.736 98.7434 253.47 98.6248 253.232C98.5062 252.994 98.3378 252.792 98.134 252.642C97.9302 252.493 97.697 252.401 97.4544 252.374C97.6612 251.679 97.674 250.93 97.4912 250.226C97.3083 249.523 96.9385 248.898 96.4305 248.434C96.309 248.309 96.1533 248.231 95.9881 248.215C95.8107 248.237 95.6432 248.318 95.5078 248.448L92.6891 250.715C92.4603 250.869 92.2676 251.082 92.1266 251.336C91.5452 252.586 93.6308 254.16 92.7586 255.219C92.5185 255.516 92.1266 255.579 91.8106 255.791C91.1407 256.257 91.0585 257.288 90.7489 258.107C90.4392 258.926 89.3395 259.519 88.9224 258.813C89.2321 258.029 88.2904 257.358 87.5383 257.259C86.7862 257.161 85.9899 257.111 85.5665 256.32C84.4921 257.372 82.0841 254.435 82.141 253.256C81.716 253.342 81.3255 253.574 81.0241 253.919C80.7227 254.265 80.5255 254.707 80.4599 255.184C80.3334 256.158 80.3016 257.145 80.3651 258.128C80.3651 260.041 79.7837 261.919 79.8153 263.832C79.8153 265.322 80.3525 266.974 81.5785 267.574C82.1855 267.817 82.8318 267.914 83.4745 267.856L97.3785 267.758C97.7136 267.787 98.0499 267.724 98.3582 267.574C98.9902 267.207 99.1165 266.289 99.1734 265.505C99.4262 262.131 99.6748 258.756 99.9192 255.381L98.6615 254.795Z" fill="#E0E0E0"/>
<path d="M99.4768 238.388H77.913L78.0899 240.817L78.2163 242.553L78.545 247.079L78.7282 249.677L78.981 253.136L79.0885 254.619V255.064L79.2149 256.8L79.3855 259.194L79.493 260.676L79.6067 262.18L79.7331 263.924L79.8279 265.244L79.9354 266.727L79.9796 267.369H99.7738L99.8181 266.727L99.9255 265.251L100.02 263.917L100.147 262.173L100.26 260.676L100.368 259.194L100.539 256.8L100.665 255.064V254.619L100.772 253.136L101.025 249.677L101.208 247.086L101.537 242.553L101.664 240.817L101.84 238.388H99.4768ZM100.741 239.984L100.324 239.518H100.779L100.741 239.984ZM100.633 241.459L100.595 242.045L98.6615 244.205L96.4495 241.727L98.4277 239.518H98.8954L100.633 241.459ZM100.077 249.169L98.6615 250.75L96.4495 248.272L98.6615 245.808L100.197 247.517L100.077 249.169ZM79.5562 247.517L81.0856 245.808L83.2976 248.272L81.0856 250.75L79.6762 249.169L79.5562 247.517ZM97.96 244.982L95.748 247.453L93.536 244.982L95.748 242.504L97.96 244.982ZM94.484 239.496H97.012L95.748 240.908L94.484 239.496ZM95.0275 248.251L92.8218 250.729L90.6035 248.251L92.8218 245.787L95.0275 248.251ZM87.6774 251.527L89.8894 249.056L92.1014 251.527L89.8894 253.998L87.6774 251.527ZM89.1689 254.795L86.9569 257.266L84.7449 254.802L86.9632 252.324L89.1689 254.795ZM92.8218 252.324L95.0275 254.802L92.8218 257.266L90.6035 254.795L92.8218 252.324ZM89.8894 247.453L87.6774 244.982L89.8894 242.504L92.1014 244.982L89.8894 247.453ZM89.1689 248.251L86.9632 250.729L84.7449 248.251L86.9632 245.787L89.1689 248.251ZM84.056 247.474L81.8503 245.003L84.056 242.525L86.2743 245.003L84.056 247.474ZM84.056 249.077L86.2743 251.548L84.056 254.019L81.8503 251.548L84.056 249.077ZM86.2743 258.092L84.056 260.563L81.8503 258.092L84.056 255.621L86.2743 258.092ZM86.9885 258.89L89.2005 261.368L86.9948 263.839L84.7765 261.368L86.9885 258.89ZM87.709 258.092L89.921 255.621L92.133 258.092L89.921 260.563L87.709 258.092ZM92.8534 258.89L95.0591 261.368L92.8534 263.839L90.6351 261.368L92.8534 258.89ZM95.7796 262.166L97.9916 264.637L96.557 266.24H94.9959L93.536 264.637L95.7796 262.166ZM93.5676 258.092L95.7796 255.621L97.9916 258.092L95.7796 260.563L93.5676 258.092ZM93.5676 251.548L95.7796 249.077L97.9916 251.548L95.7796 254.019L93.5676 251.548ZM95.0591 241.727L92.8534 244.205L90.6351 241.727L92.6196 239.518H93.081L95.0591 241.727ZM89.921 240.93L88.657 239.518H91.185L89.921 240.93ZM89.2005 241.727L86.9948 244.205L84.7765 241.727L86.761 239.518H87.216L89.2005 241.727ZM85.32 239.518L84.056 240.93L82.792 239.518H85.32ZM81.3574 239.518L83.3355 241.727L81.1235 244.205L79.2275 242.045L79.1896 241.459L80.9213 239.518H81.3574ZM79.4614 239.518L79.0506 239.976V239.518H79.4614ZM79.3223 243.789L80.4094 245.003L79.4866 246.034L79.3223 243.789ZM79.9543 252.084L79.8658 250.912L80.4346 251.548L79.9543 252.084ZM80.0618 253.574L81.1488 252.346L83.3608 254.824L81.1488 257.288L80.2261 256.278L80.0618 253.574ZM80.3904 258.142V258.036L80.441 258.092L80.3967 258.142H80.3904ZM80.7759 263.416L80.4978 259.624L81.1298 258.918L83.3418 261.397L81.1298 263.86L80.757 263.444L80.7759 263.416ZM80.9782 266.24L80.9339 265.675L81.1488 265.435L81.8693 266.24H80.9782ZM81.8693 264.637L84.075 262.166L86.2933 264.637L84.8586 266.24H83.2976L81.8693 264.637ZM86.2933 266.24L87.0138 265.435L87.7343 266.24H86.2933ZM89.1626 266.24L87.7279 264.637L89.9399 262.166L92.1519 264.637L90.7236 266.24H89.1626ZM92.1519 266.24L92.8408 265.456L93.555 266.261L92.1519 266.24ZM98.9017 266.24H97.96L98.6742 265.435L98.889 265.675L98.9017 266.24ZM99.1039 263.416L98.7247 263.832L96.5127 261.368L98.7247 258.89L99.3567 259.596L99.1039 263.416ZM99.4958 258.029V258.142L99.4452 258.092L99.5021 258.029H99.4958ZM99.6222 256.292L98.7247 257.288L96.5127 254.824L98.7247 252.346L99.8244 253.574L99.6222 256.292ZM99.9255 252.091L99.4389 251.548L100.014 250.912L99.9255 252.091ZM100.558 243.782L100.393 246.041L99.4073 244.982L100.488 243.782H100.558Z" fill="#E6E6E6"/>
<path d="M77.5717 240.52H102.251C102.824 240.52 103.288 240.002 103.288 239.362V238.529C103.288 237.89 102.824 237.371 102.251 237.371H77.5717C76.9993 237.371 76.5352 237.89 76.5352 238.529V239.362C76.5352 240.002 76.9993 240.52 77.5717 240.52Z" fill="#F0F0F0"/>
<path d="M100.317 265.675H79.493C78.9205 265.675 78.4565 266.193 78.4565 266.833V267.666C78.4565 268.305 78.9205 268.824 79.493 268.824H100.317C100.89 268.824 101.354 268.305 101.354 267.666V266.833C101.354 266.193 100.89 265.675 100.317 265.675Z" fill="#F0F0F0"/>
<path d="M256.244 244.156L262.963 222.524C262.963 222.524 253.647 230.241 253.71 221.684C253.773 213.127 257.951 219.771 259.398 216.615C260.845 213.459 255.265 213.487 257.224 208.694C259.183 203.9 264.757 211.263 265.737 207.02C266.717 202.777 268.265 200.61 272.348 200.991C272.348 200.991 274.541 206.583 271.855 210.614C269.169 214.645 278.503 211.419 277.543 215.478C276.582 219.538 273.473 223.082 272.101 220.223C270.73 217.363 268.985 222.842 271.337 224.254C273.688 225.666 268.265 231.78 267.077 228.575C266.251 226.444 265.23 224.414 264.031 222.517L257.856 245.688L256.244 244.156Z" fill="#EBEBEB"/>
<path d="M249.324 244.347L241.74 230.516C241.74 230.516 249.229 234.279 248.06 228.398C246.891 222.517 244.862 227.791 243.427 225.849C241.993 223.908 245.867 222.99 243.864 220.004C241.86 217.017 238.997 223.054 237.746 220.279C236.494 217.505 235.11 216.283 232.355 217.229C232.355 217.229 231.59 221.465 233.998 223.802C236.406 226.139 229.504 225.482 230.712 228.13C231.919 230.777 234.554 232.705 235.136 230.495C235.717 228.285 237.664 231.78 236.216 233.157C234.769 234.533 239.376 237.844 239.743 235.423C240.017 233.811 240.44 232.235 241.007 230.721L248.408 245.688L249.324 244.347Z" fill="#E6E6E6"/>
<path d="M254.424 244.481L250.955 222.192C250.955 222.192 258.943 231.37 260.1 223.025C261.256 214.68 256.232 220.406 255.265 217.067C254.298 213.727 259.739 214.751 258.513 209.731C257.287 204.712 250.803 210.896 250.449 206.583C250.095 202.269 248.875 199.883 244.862 199.523C244.862 199.523 241.93 204.578 243.977 208.99C246.025 213.403 237.379 208.588 237.727 212.718C238.074 216.848 240.609 220.851 242.353 218.309C244.097 215.768 245.02 221.416 242.53 222.376C240.04 223.336 244.426 230.255 246.063 227.318C247.171 225.385 248.456 223.587 249.899 221.952L252.642 245.688L254.424 244.481Z" fill="#F5F5F5"/>
<path d="M258.722 269.537H246.815C246.414 269.536 246.028 269.365 245.736 269.058C245.444 268.751 245.267 268.332 245.241 267.885L243.977 244.94C243.964 244.7 243.995 244.46 244.069 244.234C244.142 244.009 244.256 243.802 244.403 243.628C244.551 243.453 244.729 243.314 244.926 243.219C245.123 243.124 245.336 243.075 245.551 243.076H259.98C260.194 243.075 260.407 243.124 260.604 243.219C260.802 243.314 260.98 243.453 261.127 243.628C261.275 243.802 261.388 244.009 261.462 244.234C261.535 244.46 261.566 244.7 261.553 244.94L260.289 267.885C260.265 268.331 260.09 268.75 259.798 269.057C259.507 269.364 259.122 269.536 258.722 269.537Z" fill="#EBEBEB"/>
<path d="M261.402 245.688H243.952C243.566 245.687 243.193 245.528 242.905 245.24C242.618 244.952 242.434 244.557 242.391 244.128C242.364 243.881 242.385 243.631 242.451 243.393C242.517 243.156 242.627 242.937 242.775 242.751C242.922 242.565 243.104 242.415 243.307 242.313C243.509 242.211 243.729 242.158 243.952 242.158H261.376C261.598 242.158 261.818 242.211 262.021 242.313C262.223 242.415 262.405 242.563 262.553 242.748C262.7 242.933 262.812 243.151 262.879 243.388C262.947 243.624 262.968 243.874 262.944 244.121C262.902 244.547 262.722 244.942 262.438 245.231C262.154 245.519 261.785 245.682 261.402 245.688Z" fill="#F5F5F5"/>
<path d="M187.337 233.185H153.841V231.85C153.841 230.914 154.174 230.016 154.767 229.354C155.36 228.692 156.163 228.32 157.001 228.32H184.177C185.016 228.32 185.819 228.692 186.412 229.354C187.005 230.016 187.337 230.914 187.337 231.85V233.185Z" fill="#E0E0E0"/>
<path d="M186.244 260.888L175.5 259.709V242.864H171.272V259.716L160.49 260.902C159.972 260.957 159.491 261.225 159.14 261.654C158.79 262.084 158.595 262.644 158.594 263.225V265.025H188.146V263.225C188.149 262.64 187.954 262.076 187.602 261.643C187.25 261.211 186.765 260.941 186.244 260.888Z" fill="#E0E0E0"/>
<path d="M162.5 267.249C162.5 267.864 162.337 268.464 162.031 268.975C161.726 269.486 161.291 269.884 160.783 270.119C160.275 270.354 159.716 270.416 159.177 270.296C158.637 270.176 158.142 269.88 157.753 269.446C157.364 269.011 157.099 268.458 156.992 267.855C156.884 267.253 156.939 266.628 157.15 266.06C157.36 265.493 157.717 265.008 158.174 264.666C158.631 264.325 159.169 264.143 159.719 264.143C160.457 264.143 161.164 264.47 161.685 265.053C162.207 265.635 162.5 266.425 162.5 267.249Z" fill="#E0E0E0"/>
<path d="M184.215 267.249C184.215 267.864 184.378 268.464 184.684 268.975C184.99 269.486 185.424 269.884 185.932 270.119C186.44 270.354 186.999 270.416 187.539 270.296C188.078 270.176 188.574 269.88 188.963 269.446C189.351 269.011 189.616 268.458 189.724 267.855C189.831 267.253 189.776 266.628 189.565 266.06C189.355 265.493 188.998 265.008 188.541 264.666C188.084 264.325 187.546 264.143 186.996 264.143C186.259 264.143 185.551 264.47 185.03 265.053C184.508 265.635 184.215 266.425 184.215 267.249Z" fill="#E0E0E0"/>
<path d="M170.52 231.462H176.239V243.57C176.239 244.343 175.965 245.085 175.475 245.632C174.986 246.179 174.322 246.486 173.629 246.486H173.13C172.438 246.486 171.774 246.179 171.284 245.632C170.795 245.085 170.52 244.343 170.52 243.57V231.462Z" fill="#E6E6E6"/>
<path d="M167.726 228.631C170.974 214.247 172.828 199.516 173.256 184.69C173.311 183.094 173.916 181.585 174.947 180.479C175.977 179.373 177.351 178.756 178.78 178.759H188.684C190.145 178.757 191.548 179.403 192.585 180.554C193.621 181.705 194.207 183.269 194.214 184.901C194.252 194.983 193.626 215.591 188.526 232.345L169.679 231.568C169.365 231.556 169.056 231.466 168.778 231.303C168.499 231.14 168.256 230.908 168.069 230.626C167.881 230.344 167.753 230.018 167.693 229.672C167.634 229.327 167.645 228.971 167.726 228.631Z" fill="#EBEBEB"/>
<path d="M170.393 231.222C173.822 216.23 175.811 200.873 176.328 185.41C176.379 183.938 176.939 182.545 177.89 181.524C178.841 180.504 180.109 179.935 181.428 179.938H190.548C191.894 179.936 193.185 180.529 194.141 181.587C195.096 182.646 195.638 184.083 195.648 185.586C195.686 194.891 195.105 215.754 190.409 231.208L170.393 231.222Z" fill="#E6E6E6"/>
<path d="M174.312 216.523C174.312 216.523 163.454 214.073 152.969 215.259C142.484 216.445 157.899 231.752 157.899 231.752H160.067C160.067 231.752 151.895 222.044 152.35 219.63C152.805 217.215 173.377 220.399 173.377 220.399L174.312 216.523Z" fill="#E6E6E6"/>
<path d="M190.409 231.222H172.624C176.053 216.23 178.043 200.873 178.559 185.41C178.6 183.935 179.156 182.537 180.108 181.515C181.06 180.492 182.332 179.926 183.653 179.938H190.548C191.894 179.936 193.186 180.529 194.143 181.587C195.1 182.645 195.643 184.083 195.655 185.586C195.686 194.898 195.105 215.768 190.409 231.222Z" fill="#E0E0E0"/>
<path d="M153.721 230.749H189.682C189.825 230.749 189.966 230.78 190.098 230.841C190.23 230.903 190.35 230.992 190.451 231.105C190.552 231.217 190.632 231.351 190.686 231.499C190.741 231.646 190.769 231.804 190.769 231.963C190.769 232.286 190.655 232.596 190.451 232.825C190.248 233.053 189.971 233.183 189.682 233.185H153.721C153.431 233.185 153.153 233.056 152.948 232.827C152.743 232.598 152.628 232.287 152.628 231.963C152.628 231.803 152.656 231.645 152.711 231.497C152.766 231.349 152.847 231.215 152.949 231.102C153.05 230.989 153.171 230.9 153.303 230.839C153.436 230.779 153.578 230.748 153.721 230.749Z" fill="#E0E0E0"/>
<path d="M158 301.857C225.676 301.857 280.539 298.279 280.539 293.865C280.539 289.452 225.676 285.874 158 285.874C90.3239 285.874 35.4615 289.452 35.4615 293.865C35.4615 298.279 90.3239 301.857 158 301.857Z" fill="#F5F5F5"/>
<path d="M173.206 66.5405V289.721C173.206 290.154 173.129 290.582 172.98 290.981C172.83 291.38 172.611 291.742 172.335 292.045C172.059 292.349 171.732 292.588 171.373 292.749C171.013 292.91 170.629 292.989 170.242 292.983H69.678C69.3264 292.988 68.9775 292.913 68.6521 292.764C68.3268 292.615 68.0317 292.394 67.7846 292.115C67.5374 291.835 67.3432 291.503 67.2135 291.138C67.0838 290.773 67.0214 290.382 67.0299 289.99V66.2722C67.0181 65.9264 67.0674 65.5813 67.1751 65.2567C67.2827 64.9321 67.4466 64.6344 67.6573 64.3807C67.868 64.1269 68.1215 63.922 68.4031 63.7778C68.6848 63.6336 68.9892 63.5527 69.2988 63.54H93.1758C93.5451 63.5474 93.9042 63.6776 94.207 63.914C94.5098 64.1504 94.7427 64.4823 94.8758 64.8673L95.9692 67.8748C96.1043 68.2572 96.338 68.5861 96.6407 68.8199C96.9434 69.0536 97.3013 69.1818 97.6693 69.188H142.623C142.99 69.1863 143.347 69.0624 143.65 68.8322C143.953 68.602 144.188 68.276 144.324 67.896L145.417 64.8743C145.553 64.4912 145.787 64.1609 146.089 63.9239C146.391 63.6868 146.748 63.5534 147.117 63.54H170.64C171.333 63.5694 171.988 63.8991 172.467 64.4592C172.946 65.0193 173.211 65.7659 173.206 66.5405Z" fill="#FF2373"/>
<path opacity="0.6" d="M173.206 66.5405V289.721C173.206 290.154 173.129 290.582 172.98 290.981C172.83 291.38 172.611 291.742 172.335 292.045C172.059 292.349 171.732 292.588 171.373 292.749C171.013 292.91 170.629 292.989 170.242 292.983H69.678C69.3264 292.988 68.9775 292.913 68.6521 292.764C68.3268 292.615 68.0317 292.394 67.7846 292.115C67.5374 291.835 67.3432 291.503 67.2135 291.138C67.0838 290.773 67.0214 290.382 67.0299 289.99V66.2722C67.0181 65.9264 67.0674 65.5813 67.1751 65.2567C67.2827 64.9321 67.4466 64.6344 67.6573 64.3807C67.868 64.1269 68.1215 63.922 68.4031 63.7778C68.6848 63.6336 68.9892 63.5527 69.2988 63.54H93.1758C93.5451 63.5474 93.9042 63.6776 94.207 63.914C94.5098 64.1504 94.7427 64.4823 94.8758 64.8673L95.9692 67.8748C96.1043 68.2572 96.338 68.5861 96.6407 68.8199C96.9434 69.0536 97.3013 69.1818 97.6693 69.188H142.623C142.99 69.1863 143.347 69.0624 143.65 68.8322C143.953 68.602 144.188 68.276 144.324 67.896L145.417 64.8743C145.553 64.4912 145.787 64.1609 146.089 63.9239C146.391 63.6868 146.748 63.5534 147.117 63.54H170.64C171.333 63.5694 171.988 63.8991 172.467 64.4592C172.946 65.0193 173.211 65.7659 173.206 66.5405Z" fill="white"/>
<path d="M96.4242 232.945H74.5254C73.3457 232.945 72.3893 234.013 72.3893 235.331V259.794C72.3893 261.112 73.3457 262.18 74.5254 262.18H96.4242C97.604 262.18 98.5604 261.112 98.5604 259.794V235.331C98.5604 234.013 97.604 232.945 96.4242 232.945Z" fill="white"/>
<path opacity="0.5" d="M93.0114 239.129H77.9256V255.981H93.0114V239.129Z" fill="#FF2373"/>
<path opacity="0.3" d="M77.9256 239.129V255.981H93.0178V239.129H77.9256ZM84.985 247.559L78.6208 254.668V240.449L84.985 247.559ZM79.1074 239.906H91.8359L85.4717 247.008L79.1074 239.906ZM85.4717 248.103L91.8359 255.212H79.1074L85.4717 248.103ZM85.9583 247.559L92.3226 240.449V254.668L85.9583 247.559Z" fill="white"/>
<path opacity="0.75" d="M98.7879 268.28H72.1554V271.634H98.7879V268.28Z" fill="#FF2373"/>
<path d="M73.2488 269.17H72.4904V268.866H74.3169V269.17H73.5585V271.33H73.2488V269.17Z" fill="white"/>
<path d="M130.609 232.648H108.71C107.531 232.648 106.574 233.717 106.574 235.034V259.497C106.574 260.815 107.531 261.884 108.71 261.884H130.609C131.789 261.884 132.745 260.815 132.745 259.497V235.034C132.745 233.717 131.789 232.648 130.609 232.648Z" fill="white"/>
<path opacity="0.5" d="M127.196 238.84H112.11V255.692H127.196V238.84Z" fill="#FF2373"/>
<path opacity="0.3" d="M112.11 238.84V255.692H127.203V238.84H112.11ZM119.17 247.269L112.806 254.372V240.16L119.17 247.269ZM113.292 239.616H126.021L119.657 246.719L113.292 239.616ZM119.657 247.806L126.021 254.915H113.292L119.657 247.806ZM120.143 247.262L126.507 240.153V254.372L120.143 247.262Z" fill="white"/>
<path opacity="0.75" d="M132.973 267.991H106.34V271.344H132.973V267.991Z" fill="#FF2373"/>
<path d="M107.44 268.88H106.682V268.577H108.508V268.88H107.75V270.998H107.44V268.88Z" fill="white"/>
<path d="M164.794 232.359H142.895C141.715 232.359 140.759 233.427 140.759 234.745V259.208C140.759 260.526 141.715 261.594 142.895 261.594H164.794C165.974 261.594 166.93 260.526 166.93 259.208V234.745C166.93 233.427 165.974 232.359 164.794 232.359Z" fill="white"/>
<path opacity="0.5" d="M161.381 238.55H146.295V255.403H161.381V238.55Z" fill="#FF2373"/>
<path opacity="0.3" d="M146.295 238.55V255.403H161.381V238.55H146.295ZM153.348 246.973L146.991 254.082V239.871L153.348 246.973ZM147.477 239.334H160.206L153.841 246.443L147.477 239.334ZM153.841 247.538L160.206 254.647H147.477L153.841 247.538ZM154.328 246.987L160.692 239.885V254.096L154.328 246.987Z" fill="white"/>
<path opacity="0.75" d="M167.158 267.701H140.525V271.055H167.158V267.701Z" fill="#FF2373"/>
<path d="M141.619 268.591H140.86V268.28H142.687V268.591H141.928V270.744H141.619V268.591Z" fill="white"/>
<path d="M166.854 84.3529H73.3815C72.7044 84.3529 72.1554 84.9661 72.1554 85.7225V134.507C72.1554 135.264 72.7044 135.877 73.3815 135.877H166.854C167.531 135.877 168.08 135.264 168.08 134.507V85.7225C168.08 84.9661 167.531 84.3529 166.854 84.3529Z" fill="white"/>
<path opacity="0.75" d="M76.8259 111.16C77.9987 111.16 78.9494 110.098 78.9494 108.788C78.9494 107.477 77.9987 106.415 76.8259 106.415C75.6531 106.415 74.7024 107.477 74.7024 108.788C74.7024 110.098 75.6531 111.16 76.8259 111.16Z" fill="#FF2373"/>
<path d="M75.7768 108.788L77.42 110.03V107.538L75.7768 108.788Z" fill="white"/>
<path opacity="0.75" d="M163.41 111.16C164.583 111.16 165.533 110.098 165.533 108.788C165.533 107.477 164.583 106.415 163.41 106.415C162.237 106.415 161.286 107.477 161.286 108.788C161.286 110.098 162.237 111.16 163.41 111.16Z" fill="#FF2373"/>
<path d="M164.459 108.788L162.816 107.538V110.03L164.459 108.788Z" fill="white"/>
<path opacity="0.75" d="M141.6 96.8208H88.0755V102.779H141.6V96.8208Z" fill="#FF2373"/>
<path opacity="0.75" d="M141.6 104.559H88.0755V110.517H141.6V104.559Z" fill="#FF2373"/>
<path opacity="0.75" d="M131.911 112.889H88.0755V118.848H131.911V112.889Z" fill="#FF2373"/>
<path d="M90.0221 98.4023H88.6759V97.8587H91.9244V98.4023H90.5782V102.243H90.0221V98.4023Z" fill="white"/>
<path opacity="0.75" d="M111.39 133.01C111.39 133.223 111.334 133.43 111.228 133.607C111.123 133.783 110.973 133.921 110.797 134.002C110.621 134.083 110.428 134.104 110.242 134.063C110.056 134.021 109.884 133.919 109.75 133.769C109.616 133.619 109.524 133.428 109.487 133.22C109.45 133.012 109.469 132.796 109.542 132.6C109.615 132.404 109.738 132.236 109.896 132.118C110.054 132 110.239 131.937 110.429 131.937C110.684 131.937 110.928 132.05 111.109 132.252C111.289 132.453 111.39 132.726 111.39 133.01Z" fill="#FF2373"/>
<path opacity="0.75" d="M116.231 133.01C116.231 133.223 116.175 133.431 116.069 133.607C115.963 133.784 115.813 133.921 115.637 134.002C115.461 134.084 115.267 134.104 115.081 134.062C114.894 134.02 114.723 133.917 114.589 133.767C114.455 133.616 114.364 133.424 114.328 133.215C114.291 133.007 114.311 132.791 114.385 132.595C114.458 132.399 114.583 132.232 114.741 132.115C114.9 131.998 115.087 131.936 115.277 131.937C115.53 131.939 115.773 132.053 115.952 132.254C116.131 132.455 116.231 132.727 116.231 133.01Z" fill="#FF2373"/>
<path opacity="0.75" d="M121.079 133.01C121.079 133.223 121.022 133.43 120.917 133.607C120.811 133.783 120.661 133.921 120.486 134.002C120.31 134.083 120.117 134.104 119.931 134.063C119.744 134.021 119.573 133.919 119.439 133.769C119.304 133.619 119.213 133.428 119.176 133.22C119.139 133.012 119.158 132.796 119.23 132.6C119.303 132.404 119.426 132.236 119.584 132.118C119.742 132 119.928 131.937 120.118 131.937C120.244 131.937 120.369 131.965 120.486 132.019C120.602 132.073 120.708 132.152 120.797 132.252C120.886 132.351 120.957 132.47 121.005 132.6C121.054 132.73 121.079 132.869 121.079 133.01Z" fill="#FF2373"/>
<path opacity="0.75" d="M125.92 133.01C125.92 133.223 125.863 133.431 125.757 133.607C125.652 133.784 125.501 133.921 125.325 134.002C125.149 134.084 124.956 134.104 124.769 134.062C124.583 134.02 124.412 133.917 124.278 133.767C124.143 133.616 124.052 133.424 124.016 133.215C123.98 133.007 124 132.791 124.073 132.595C124.147 132.399 124.271 132.232 124.43 132.115C124.589 131.998 124.775 131.936 124.965 131.937C125.219 131.939 125.462 132.053 125.641 132.254C125.819 132.455 125.92 132.727 125.92 133.01Z" fill="#FF2373"/>
<path opacity="0.75" d="M130.767 133.01C130.767 133.223 130.711 133.43 130.605 133.607C130.5 133.783 130.35 133.921 130.174 134.002C129.999 134.083 129.805 134.104 129.619 134.063C129.433 134.021 129.262 133.919 129.127 133.769C128.993 133.619 128.901 133.428 128.864 133.22C128.827 133.012 128.846 132.796 128.919 132.6C128.992 132.404 129.115 132.236 129.273 132.118C129.431 132 129.616 131.937 129.806 131.937C130.061 131.937 130.306 132.05 130.486 132.252C130.666 132.453 130.767 132.726 130.767 133.01Z" fill="#FF2373"/>
<path d="M168.08 143.156H72.1554V151.529H168.08V143.156Z" fill="white"/>
<path opacity="0.75" d="M168.08 143.064H160.414V151.628H168.08V143.064Z" fill="#FF2373"/>
<path d="M158.853 158.003H73.7986C72.8911 158.003 72.1554 158.825 72.1554 159.838V188.686C72.1554 189.699 72.8911 190.521 73.7986 190.521H158.853C159.761 190.521 160.496 189.699 160.496 188.686V159.838C160.496 158.825 159.761 158.003 158.853 158.003Z" fill="white"/>
<path opacity="0.5" d="M103.724 162.514H76.0928V186.017H103.724V162.514Z" fill="#FF2373"/>
<path opacity="0.3" d="M76.0928 162.514V186.017H103.724V162.514H76.0928ZM102.466 163.22L89.9083 173.81L77.3568 163.22H102.466ZM76.7248 163.573L89.3648 174.262L76.7248 184.972V163.573ZM77.3568 185.311L89.9083 174.721L102.466 185.311H77.3568ZM90.4329 174.262L103.073 163.573V184.972L90.4329 174.262Z" fill="white"/>
<path opacity="0.75" d="M156.995 162.86H108.015V165.924H156.995V162.86Z" fill="#FF2373"/>
<path opacity="0.75" d="M156.995 168.247H108.015V171.311H156.995V168.247Z" fill="#FF2373"/>
<path opacity="0.75" d="M130.527 173.937H108.015V177.001H130.527V173.937Z" fill="#FF2373"/>
<path d="M109.014 163.679H108.325V163.397H109.968V163.679H109.273V165.649H108.988L109.014 163.679Z" fill="white"/>
<path d="M158.853 193.303H73.7986C72.8911 193.303 72.1554 194.125 72.1554 195.138V223.986C72.1554 224.999 72.8911 225.821 73.7986 225.821H158.853C159.761 225.821 160.496 224.999 160.496 223.986V195.138C160.496 194.125 159.761 193.303 158.853 193.303Z" fill="white"/>
<path opacity="0.5" d="M103.724 197.814H76.0928V221.317H103.724V197.814Z" fill="#FF2373"/>
<path opacity="0.3" d="M76.0928 197.814V221.317H103.724V197.814H76.0928ZM102.466 198.52L89.9083 209.11L77.3568 198.52H102.466ZM76.7248 198.873L89.3648 209.562L76.7248 220.272V198.873ZM77.3568 220.611L89.9083 210.021L102.466 220.611H77.3568ZM90.4329 209.562L103.073 198.873V220.272L90.4329 209.562Z" fill="white"/>
<path opacity="0.75" d="M156.995 198.16H108.015V201.224H156.995V198.16Z" fill="#FF2373"/>
<path opacity="0.75" d="M156.995 203.547H108.015V206.611H156.995V203.547Z" fill="#FF2373"/>
<path opacity="0.75" d="M130.527 209.237H108.015V212.301H130.527V209.237Z" fill="#FF2373"/>
<path d="M109.014 198.979H108.325V198.697H109.968V198.979H109.273V200.949H108.988L109.014 198.979Z" fill="white"/>
<path d="M167.158 158.038H163.745V225.828H167.158V158.038Z" fill="white"/>
<path opacity="0.75" d="M167.158 161.723H163.745V172.342H167.158V161.723Z" fill="#FF2373"/>
<path d="M173.206 66.5405V77.4764H67.0299V66.2722C67.0181 65.9264 67.0674 65.5813 67.1751 65.2567C67.2827 64.9321 67.4466 64.6344 67.6573 64.3807C67.868 64.1269 68.1215 63.922 68.4031 63.7778C68.6848 63.6336 68.9892 63.5527 69.2988 63.54H93.1758C93.5451 63.5474 93.9042 63.6776 94.207 63.914C94.5098 64.1504 94.7427 64.4823 94.8758 64.8673L95.9692 67.8748C96.1043 68.2572 96.338 68.5861 96.6407 68.8199C96.9434 69.0536 97.3013 69.1818 97.6693 69.188H142.623C142.99 69.1863 143.347 69.0624 143.65 68.8322C143.953 68.602 144.188 68.276 144.324 67.896L145.417 64.8743C145.553 64.4912 145.787 64.1609 146.089 63.9239C146.391 63.6868 146.748 63.5534 147.117 63.54H170.64C171.333 63.5694 171.988 63.8991 172.467 64.4592C172.946 65.0193 173.211 65.7659 173.206 66.5405Z" fill="#FF2373"/>
<path d="M67.0299 278.164H173.206V289.728C173.206 290.161 173.129 290.589 172.979 290.988C172.83 291.387 172.611 291.749 172.335 292.052C172.059 292.356 171.732 292.595 171.373 292.756C171.013 292.917 170.629 292.997 170.242 292.99H69.6779C69.3263 292.995 68.9774 292.92 68.6521 292.771C68.3267 292.622 68.0317 292.401 67.7845 292.122C67.5373 291.842 67.3431 291.51 67.2134 291.145C67.0838 290.78 67.0213 290.389 67.0299 289.997V278.164Z" fill="#FF2373"/>
<path d="M61.6579 64.6908H42.4072V75.1608H61.6579V64.6908Z" fill="#FF2373"/>
<path d="M45.5988 67.543H58.4727" stroke="white" stroke-linecap="round" stroke-linejoin="round"/>
<path d="M45.5988 69.9222H58.4727" stroke="white" stroke-linecap="round" stroke-linejoin="round"/>
<path d="M45.5988 72.3015H52.0389" stroke="white" stroke-linecap="round" stroke-linejoin="round"/>
<path d="M55.8814 74.7301L74.8794 93.1355" stroke="#FF2373" stroke-miterlimit="10"/>
<path d="M74.8794 94.4204C75.5146 94.4204 76.0296 93.8452 76.0296 93.1355C76.0296 92.4259 75.5146 91.8506 74.8794 91.8506C74.2441 91.8506 73.7291 92.4259 73.7291 93.1355C73.7291 93.8452 74.2441 94.4204 74.8794 94.4204Z" fill="#FF2373"/>
<path d="M59.7619 194.814H40.5112V205.284H59.7619V194.814Z" fill="#FF2373"/>
<path d="M43.7028 197.666H56.5767" stroke="white" stroke-linecap="round" stroke-linejoin="round"/>
<path d="M43.7028 200.045H56.5767" stroke="white" stroke-linecap="round" stroke-linejoin="round"/>
<path d="M43.7028 202.424H50.1429" stroke="white" stroke-linecap="round" stroke-linejoin="round"/>
<path d="M72.9834 201.33C73.6186 201.33 74.1336 200.755 74.1336 200.045C74.1336 199.335 73.6186 198.76 72.9834 198.76C72.3481 198.76 71.8331 199.335 71.8331 200.045C71.8331 200.755 72.3481 201.33 72.9834 201.33Z" fill="#FF2373"/>
<path d="M72.9834 200.045H58.6117" stroke="#FF2373" stroke-miterlimit="10"/>
<path d="M195.749 114.252H176.499V124.722H195.749V114.252Z" fill="#FF2373"/>
<path d="M179.684 117.104H192.564" stroke="white" stroke-linecap="round" stroke-linejoin="round"/>
<path d="M179.684 119.483H192.564" stroke="white" stroke-linecap="round" stroke-linejoin="round"/>
<path d="M179.684 121.863H186.124" stroke="white" stroke-linecap="round" stroke-linejoin="round"/>
<path d="M154.796 146.806C155.431 146.806 155.946 146.23 155.946 145.521C155.946 144.811 155.431 144.236 154.796 144.236C154.161 144.236 153.646 144.811 153.646 145.521C153.646 146.23 154.161 146.806 154.796 146.806Z" fill="#FF2373"/>
<path d="M154.796 145.521L182.559 122.307" stroke="#FF2373" stroke-miterlimit="10"/>
<path d="M197.633 253.277H178.382V263.747H197.633V253.277Z" fill="#FF2373"/>
<path d="M181.574 256.137H194.447" stroke="white" stroke-linecap="round" stroke-linejoin="round"/>
<path d="M181.574 258.516H194.447" stroke="white" stroke-linecap="round" stroke-linejoin="round"/>
<path d="M181.574 260.895H188.014" stroke="white" stroke-linecap="round" stroke-linejoin="round"/>
<path d="M157.829 258.516C157.829 258.77 157.762 259.019 157.635 259.231C157.508 259.442 157.328 259.607 157.118 259.704C156.907 259.801 156.676 259.826 156.452 259.776C156.229 259.726 156.024 259.602 155.864 259.422C155.703 259.242 155.594 259.012 155.55 258.762C155.507 258.513 155.53 258.254 155.618 258.019C155.706 257.785 155.855 257.585 156.045 257.444C156.235 257.304 156.458 257.23 156.685 257.231C156.836 257.231 156.985 257.264 157.125 257.329C157.264 257.394 157.39 257.488 157.497 257.608C157.603 257.727 157.687 257.869 157.744 258.025C157.801 258.181 157.83 258.348 157.829 258.516Z" fill="#FF2373"/>
<path d="M156.685 258.516H179.804" stroke="#FF2373" stroke-miterlimit="10"/>
<path d="M217.022 142.986C214.893 143.099 205.975 156.478 205.975 156.478L202.663 151.663C202.663 151.663 197.557 162.747 200.079 168.028C202.6 173.309 215.916 158.85 215.916 158.85L217.022 142.986Z" fill="#FF2373"/>
<path opacity="0.2" d="M217.022 142.986L216.144 153.661L215.916 158.878C215.916 158.878 213.73 161.25 210.962 163.714C206.898 167.322 201.608 171.163 200.079 168.028C197.551 162.754 202.663 151.67 202.663 151.67L205.975 156.478V156.435C206.5 155.631 214.962 143.092 217.022 142.986Z" fill="black"/>
<path opacity="0.2" d="M216.144 153.661L215.916 158.878C215.916 158.878 213.73 161.25 210.962 163.714C210.696 157.445 215.916 148.324 215.916 148.324L216.144 153.661Z" fill="black"/>
<path opacity="0.2" d="M205.975 156.478L206.449 157.494L205.059 163.531C205.059 163.531 208.889 159.641 206.449 155.821L205.975 156.478Z" fill="black"/>
<path d="M216.637 176.444L234.598 177.99C234.598 177.99 234.845 165.988 236.273 159.768C236.741 157.749 237.322 155.482 238.062 152.849C238.378 151.726 238.694 150.554 239.098 149.319C239.503 148.083 239.812 146.897 240.223 145.591C237.768 144.712 235.259 144.035 232.715 143.565C230.03 143.032 227.313 142.714 224.587 142.612C221.067 142.612 217.003 143.021 217.003 143.021C217.003 143.021 216.428 143.184 216.068 147.342C215.752 151.225 215.91 162.203 216.637 176.444Z" fill="#FF2373"/>
<path opacity="0.2" d="M216.637 176.444L234.598 177.99C234.598 177.99 234.598 177.743 234.598 177.284C234.674 174.657 235.028 165.098 236.254 159.754C236.583 158.342 236.975 156.739 237.449 155.002C237.632 154.296 237.828 153.59 238.043 152.835C238.359 151.719 238.675 150.54 239.073 149.305C239.471 148.069 239.793 146.883 240.204 145.577C239.225 145.224 238.239 144.914 237.246 144.624C235.749 144.193 234.226 143.84 232.696 143.551C230.016 143.024 227.307 142.71 224.587 142.612C222.319 142.612 219.835 142.767 218.35 142.901C217.528 142.972 217.022 143.029 217.022 143.029C217.022 143.029 216.447 143.184 216.081 147.342C215.752 151.232 215.91 162.203 216.637 176.444Z" fill="black"/>
<path d="M226.079 147.046C230.541 146.41 231.887 144.278 231.887 144.278C230.061 142.358 230.389 139.52 230.857 137.755C230.998 137.194 231.182 136.649 231.407 136.124L226.035 137.246C226.164 138.086 226.238 138.936 226.256 139.788C226.275 140.412 226.224 141.035 226.104 141.645C225.738 143.438 224.84 143.459 224.84 143.459C223.867 145.436 226.079 147.046 226.079 147.046Z" fill="#EBB376"/>
<path opacity="0.2" d="M226.256 139.788C226.275 140.412 226.224 141.035 226.104 141.645C228.24 141.327 229.852 139.421 230.87 137.769C231.01 137.208 231.194 136.663 231.419 136.138L226.047 137.261C226.172 138.096 226.241 138.941 226.256 139.788Z" fill="black"/>
<path d="M238.668 112.713H240.223C239.876 110.715 237.562 108.018 235.041 108.731C235.487 108.246 235.976 107.813 236.501 107.439C235.595 107.222 234.654 107.26 233.765 107.551C232.875 107.842 232.065 108.376 231.407 109.105C229.233 111.604 228.095 116.787 229.997 118.813C230.244 119.074 230.541 118.996 230.863 118.693C232.5 121.157 234.794 118.883 235.192 118.813C235.591 118.742 235.287 120.098 235.287 120.098C236.602 120.098 236.918 118.234 236.918 118.234L238.182 120.098C238.595 119.612 238.896 119.019 239.055 118.373C239.215 117.726 239.23 117.046 239.098 116.391L240.236 117.21C240.444 113.857 238.668 112.713 238.668 112.713Z" fill="#263238"/>
<path d="M219.847 129.276C219.847 129.276 217.206 121.51 224.063 117.676C230.92 113.842 234.914 119.279 235.167 124.531C235.42 129.784 233.903 134.309 231.666 135.213C229.429 136.117 219.847 129.276 219.847 129.276Z" fill="#263238"/>
<path d="M225.308 121.305C220.682 122.053 219.55 125.061 219.898 130.441C220.334 137.162 222.268 141.68 227.868 139.322C235.477 136.124 232.987 120.069 225.308 121.305Z" fill="#EBB376"/>
<path d="M222.849 129.671C222.581 130.503 222.222 131.295 221.781 132.029C221.943 132.223 222.15 132.362 222.379 132.431C222.608 132.5 222.85 132.495 223.077 132.417L222.849 129.671Z" fill="#D58745"/>
<path d="M225.624 128.789C225.668 129.212 225.915 129.53 226.168 129.495C226.42 129.459 226.591 129.085 226.54 128.654C226.49 128.224 226.256 127.913 225.997 127.948C225.738 127.984 225.58 128.365 225.624 128.789Z" fill="#263238"/>
<path d="M226.117 127.963L225.245 127.708C225.245 127.708 225.744 128.436 226.117 127.963Z" fill="#263238"/>
<path d="M220.878 129.339C220.928 129.763 221.168 130.08 221.421 130.045C221.674 130.01 221.845 129.643 221.8 129.212C221.756 128.781 221.51 128.471 221.257 128.506C221.004 128.541 220.833 128.916 220.878 129.339Z" fill="#263238"/>
<path d="M221.364 128.492L220.498 128.238C220.498 128.238 220.991 128.986 221.364 128.492Z" fill="#263238"/>
<path d="M225.213 125.216C225.573 125.106 225.95 125.09 226.316 125.168C226.681 125.247 227.026 125.418 227.324 125.668" stroke="#263238" stroke-width="0.707962" stroke-linecap="round" stroke-linejoin="round"/>
<path d="M221.832 125.534C221.506 125.493 221.175 125.536 220.865 125.658C220.556 125.78 220.275 125.979 220.043 126.24" stroke="#263238" stroke-width="0.707962" stroke-linecap="round" stroke-linejoin="round"/>
<path d="M231.489 129.198C231.489 129.198 228.778 125.301 228.683 121.976C228.683 121.976 218.969 119.272 219.866 129.742C219.866 129.742 217.775 120.655 225.7 119.152C233.625 117.648 235.275 130.666 231.666 135.206C231.666 135.213 233.17 131.641 231.489 129.198Z" fill="#263238"/>
<path d="M230.876 130.412C230.843 129.811 231.023 129.22 231.378 128.766C231.733 128.313 232.234 128.034 232.772 127.991C234.225 127.934 235.338 131.111 231.874 132.474C231.394 132.672 231.034 132.156 230.876 130.412Z" fill="#EBB376"/>
<path d="M224.063 135.114C224.063 135.114 226.06 135.298 226.591 133.236" stroke="#263238" stroke-width="0.707962" stroke-linecap="round" stroke-linejoin="round"/>
<path d="M213.774 151.825C213.782 151.899 213.776 151.973 213.756 152.044C213.736 152.114 213.703 152.179 213.659 152.234C213.614 152.289 213.56 152.333 213.499 152.362C213.438 152.391 213.373 152.406 213.306 152.404H208.181C208.04 152.394 207.906 152.332 207.801 152.227C207.695 152.122 207.624 151.98 207.599 151.825L206.455 140.529C206.445 140.452 206.448 140.373 206.466 140.297C206.484 140.222 206.515 140.151 206.559 140.089C206.602 140.028 206.656 139.977 206.718 139.94C206.779 139.902 206.847 139.88 206.917 139.873H212.049C212.197 139.894 212.334 139.97 212.438 140.09C212.543 140.209 212.608 140.364 212.624 140.529L213.774 151.825Z" fill="#263238"/>
<path opacity="0.5" d="M212.055 140.438L213.218 151.861C213.233 151.927 213.234 151.997 213.22 152.064C213.206 152.132 213.179 152.194 213.139 152.247C213.1 152.3 213.05 152.342 212.993 152.369C212.936 152.397 212.875 152.409 212.813 152.404H208.465C208.174 152.404 207.637 152.221 207.606 151.896L206.443 140.438C206.443 140.12 206.91 139.859 207.201 139.859H211.549C211.684 139.864 211.812 139.927 211.906 140.035C212 140.143 212.053 140.287 212.055 140.438Z" fill="white"/>
<path d="M203.024 152.764L205.703 147.695C205.68 146.593 205.754 145.491 205.925 144.405C206.158 143.777 208.781 142.365 209.293 142.577C209.805 142.789 209.995 148.013 209.527 148.719C209.059 149.425 207.422 150.209 207.422 150.209L207.536 151.197L205.975 156.478L203.024 152.764Z" fill="#EBB376"/>
<path d="M201.949 152.192L202.84 151.197L207.05 156.478L206.449 158.568L201.949 152.192Z" fill="#FF2373"/>
<path opacity="0.2" d="M223.279 160.622C223.279 160.622 228.228 173.217 234.617 177.298C234.693 174.671 235.047 165.112 236.273 159.768C236.602 158.356 236.994 156.753 237.468 155.016L235.521 152.404C235.521 152.404 234.169 157.071 234.769 161.116L227.318 156.026L223.279 160.622Z" fill="black"/>
<path d="M228.07 157.727L221.99 152.404C221.647 151.249 221.224 150.126 220.726 149.044C220.359 148.549 215.038 146.354 214.583 146.297C214.128 146.241 214.583 151.169 215.253 152.009C215.923 152.849 220.208 154.508 220.208 154.508L226.572 161.201L228.07 157.727Z" fill="#EBB376"/>
<path d="M240.223 145.563C243.794 147.561 245.38 170.075 239.18 173.965C232.98 177.856 223.728 160.262 223.728 160.262L227.33 156.026C227.33 156.026 234.87 163.086 235.787 162.436C236.703 161.787 235.66 154.889 235.66 154.889C235.66 154.889 234.598 152.771 236.829 149.524C239.06 146.276 240.223 145.563 240.223 145.563Z" fill="#FF2373"/>
<path opacity="0.2" d="M240.223 145.563C243.794 147.561 245.38 170.075 239.18 173.965C232.98 177.856 223.728 160.262 223.728 160.262L227.33 156.026C227.33 156.026 234.87 163.086 235.787 162.436C236.703 161.787 235.66 154.889 235.66 154.889C235.66 154.889 234.598 152.771 236.829 149.524C239.06 146.276 240.223 145.563 240.223 145.563Z" fill="black"/>
<path d="M223.652 161.851L222.578 161.123L226.616 154.508L228.101 155.433L223.652 161.851Z" fill="#FF2373"/>
<path d="M218.35 142.866C218.371 143.684 218.631 144.473 219.089 145.111C219.427 145.58 219.831 145.985 220.284 146.311C221.44 147.166 223.241 147.914 226.035 148.324C227.564 148.568 229.115 148.585 230.648 148.373C231.319 148.272 231.98 148.109 232.627 147.886C234.421 147.31 236.03 146.173 237.265 144.61C236.28 144.328 235.281 144.073 234.276 143.862C234.015 143.796 233.756 143.739 233.499 143.692L232.715 143.537C230.029 143.014 227.313 142.705 224.588 142.612C223.602 142.612 222.59 142.612 221.623 142.676C221.2 142.676 220.783 142.718 220.391 142.753C219.614 142.76 218.912 142.817 218.35 142.866Z" fill="#EBB376"/>
<path d="M230.68 148.373C231.35 148.272 232.012 148.109 232.658 147.886C232.825 146.387 233.401 144.982 234.308 143.862C234.046 143.796 233.787 143.739 233.53 143.692C231.944 144.899 231.059 147.109 230.68 148.373Z" fill="#263238"/>
<path d="M219.089 145.111C219.427 145.58 219.831 145.985 220.284 146.311C220.327 144.949 220.802 143.648 221.623 142.64C221.2 142.64 220.783 142.683 220.391 142.718C219.828 143.419 219.386 144.23 219.089 145.111Z" fill="#263238"/>
<path d="M215.019 101.311H221.522C221.993 101.311 222.445 101.52 222.778 101.892C223.111 102.264 223.298 102.769 223.298 103.295V108.943C223.298 109.469 223.111 109.974 222.778 110.346C222.445 110.718 221.993 110.927 221.522 110.927H219.133L218.267 113.264L217.408 110.955H215.019C214.548 110.955 214.096 110.746 213.763 110.374C213.43 110.002 213.243 109.497 213.243 108.971V103.323C213.24 103.06 213.283 102.799 213.371 102.555C213.459 102.311 213.589 102.089 213.754 101.902C213.919 101.715 214.116 101.566 214.334 101.465C214.551 101.363 214.784 101.311 215.019 101.311Z" fill="#FF2373"/>
<path d="M220.701 106.225H219.468C219.238 105.213 219.14 104.169 219.178 103.125C218.968 103.091 218.755 103.091 218.546 103.125C218.343 103.196 218.274 105.568 218.274 105.568C217.496 105.497 216.715 105.481 215.935 105.519C215.86 105.582 215.847 105.949 215.841 106.225C215.84 106.298 215.862 106.37 215.903 106.427C215.945 106.484 216.003 106.522 216.068 106.535H216.144L216.258 108.893C216.262 108.982 216.297 109.066 216.354 109.127C216.412 109.189 216.488 109.224 216.567 109.225H218.634C218.839 109.225 219.039 109.156 219.209 109.028L219.437 108.858L220.701 108.957V106.225Z" fill="#FF2373"/>
<path opacity="0.7" d="M220.701 106.225H219.468C219.238 105.213 219.14 104.169 219.178 103.125C218.968 103.091 218.755 103.091 218.546 103.125C218.343 103.196 218.274 105.568 218.274 105.568C217.496 105.497 216.715 105.481 215.935 105.519C215.86 105.582 215.847 105.949 215.841 106.225C215.84 106.298 215.862 106.37 215.903 106.427C215.945 106.484 216.003 106.522 216.068 106.535H216.144L216.258 108.893C216.262 108.982 216.297 109.066 216.354 109.127C216.412 109.189 216.488 109.224 216.567 109.225H218.634C218.839 109.225 219.039 109.156 219.209 109.028L219.437 108.858L220.701 108.957V106.225Z" fill="white"/>
<path d="M199.763 284.349L203.548 285.083L205.097 279.421L206.512 274.225L202.152 272.551L200.888 278.792L199.763 284.349Z" fill="#E4897B"/>
<path d="M204.401 284.97C204.465 284.511 199.282 283.876 199.282 283.876C199.282 283.876 195.56 286.784 192.374 286.982C189.189 287.18 190.567 289.531 194.024 290.166L202.493 291.804C204.894 292.284 203.738 289.735 204.401 284.97Z" fill="#263238"/>
<path d="M195.92 284.574C195.863 284.482 195.832 284.373 195.832 284.26C195.832 284.148 195.863 284.038 195.92 283.946C195.953 283.869 195.999 283.8 196.057 283.744C196.115 283.688 196.182 283.647 196.255 283.621C196.644 283.526 197.049 283.555 197.424 283.706C197.051 283.381 196.729 283 196.792 282.711C196.792 282.52 196.95 282.379 197.203 282.308C197.41 282.247 197.631 282.28 197.816 282.4C198.448 282.852 198.682 284.243 198.688 284.306C198.694 284.329 198.694 284.354 198.688 284.377V284.412C198.688 284.412 198.688 284.412 198.657 284.454C198.642 284.46 198.627 284.46 198.612 284.454C198.007 284.648 197.383 284.762 196.754 284.793C196.461 284.845 196.162 284.766 195.92 284.574ZM196.324 283.904C196.286 283.916 196.25 283.938 196.22 283.967C196.189 283.997 196.165 284.033 196.147 284.073C196.059 284.285 196.116 284.349 196.147 284.377C196.356 284.638 197.342 284.511 198.157 284.306C197.592 283.985 196.957 283.845 196.324 283.904ZM197.222 282.598C197.146 282.598 197.02 282.668 197.013 282.746C196.982 283.007 197.645 283.586 198.353 284.045C198.264 283.516 198.025 283.033 197.671 282.668C197.584 282.606 197.483 282.572 197.38 282.569C197.326 282.572 197.274 282.582 197.222 282.598Z" fill="#FF2373"/>
<path opacity="0.2" d="M200.862 278.926L205.084 279.534L206.506 274.281L202.145 272.58L200.862 278.926Z" fill="black"/>
<path d="M225.03 286.128H228.866L229.498 280.254L230.073 274.867L225.51 274.055L225.251 280.444L225.03 286.128Z" fill="#E4897B"/>
<path d="M229.694 285.852C229.694 285.393 224.48 285.754 224.48 285.754C224.48 285.754 221.276 289.326 218.16 290.131C215.044 290.936 216.789 292.955 220.265 292.955H228.86C231.312 292.99 229.795 290.674 229.694 285.852Z" fill="#263238"/>
<path d="M221.282 287.081C221.206 287.008 221.153 286.909 221.13 286.8C221.108 286.691 221.117 286.577 221.156 286.474C221.175 286.391 221.21 286.313 221.258 286.246C221.305 286.179 221.366 286.124 221.434 286.085C221.802 285.917 222.205 285.868 222.597 285.944C222.173 285.697 221.807 285.393 221.788 285.097C221.769 284.8 221.895 284.737 222.129 284.617C222.235 284.561 222.35 284.532 222.467 284.532C222.584 284.532 222.7 284.561 222.805 284.617C223.513 284.935 223.949 286.269 223.968 286.325C223.981 286.364 223.981 286.407 223.968 286.445C223.957 286.463 223.941 286.478 223.924 286.488C223.244 286.857 222.513 287.096 221.762 287.194C221.595 287.221 221.425 287.181 221.282 287.081ZM221.567 286.375C221.531 286.395 221.5 286.423 221.475 286.457C221.45 286.491 221.432 286.53 221.421 286.572C221.371 286.798 221.421 286.855 221.421 286.876C221.668 287.095 222.622 286.784 223.387 286.424C222.797 286.216 222.168 286.189 221.567 286.347V286.375ZM222.249 284.913C222.18 284.956 222.059 285.026 222.066 285.104C222.066 285.365 222.824 285.81 223.595 286.128C223.42 285.622 223.106 285.192 222.698 284.899C222.631 284.87 222.561 284.853 222.489 284.85C222.408 284.842 222.326 284.854 222.249 284.885V284.913Z" fill="#FF2373"/>
<path opacity="0.2" d="M225.251 280.579L229.498 280.374L230.073 274.923L225.51 274.083L225.251 280.579Z" fill="black"/>
<path d="M200.508 275.629L206.727 276.83C213.009 259.674 217.471 245.349 220.631 233.46C222.331 227.05 223.652 221.345 224.67 216.283L224.36 234.964V277.402H230.68C246.063 196.974 235.173 178.618 235.173 178.618L216.776 175.166C216.05 178.891 215.538 182.664 215.24 186.462L214.406 193.133L207.233 233.841L200.508 275.629Z" fill="#FF2373"/>
<path opacity="0.6" d="M200.508 275.629L206.727 276.83C213.009 259.674 217.471 245.349 220.631 233.46C222.331 227.05 223.652 221.345 224.67 216.283L224.36 234.964V277.402H230.68C246.063 196.974 235.173 178.618 235.173 178.618L216.776 175.166C216.05 178.891 215.538 182.664 215.24 186.462L214.406 193.133L207.233 233.841L200.508 275.629Z" fill="white"/>
<path d="M207.707 275.99L199.99 273.18L200.091 276.78L206.474 279.018L207.707 275.99Z" fill="#FF2373"/>
<path d="M231.521 276.378L223.482 275.086L224.151 278.616L230.787 279.597L231.521 276.378Z" fill="#FF2373"/>
<path d="M235.174 175.603V178.611L216.428 177.037V173.471L235.174 175.603Z" fill="#263238"/>
<path d="M220.486 177.623L224.581 178.025L224.859 174.608L220.764 174.206L220.486 177.623Z" fill="white"/>
<path d="M228.639 179.529L229.568 179.585L229.808 174.389L228.879 174.333L228.639 179.529Z" fill="#FF2373"/>
<path opacity="0.6" d="M228.639 179.529L229.568 179.585L229.808 174.389L228.879 174.333L228.639 179.529Z" fill="white"/>
<path d="M217.187 178.152L218.116 178.201L218.356 173.005L217.427 172.956L217.187 178.152Z" fill="#FF2373"/>
<path opacity="0.6" d="M217.187 178.152L218.116 178.201L218.356 173.005L217.427 172.956L217.187 178.152Z" fill="white"/>
<path opacity="0.2" d="M220.625 233.46C222.325 227.05 223.646 221.345 224.663 216.283C224.577 210.297 224.18 204.321 223.475 198.386C223.475 198.386 220.783 221.472 220.625 233.46Z" fill="black"/>
</svg>
