<svg width="329" height="123" viewBox="0 0 329 123" fill="none" xmlns="http://www.w3.org/2000/svg">
<path d="M19.98 44L12.51 31.175H7.56V44H3.465V12.635H13.59C15.96 12.635 17.955 13.04 19.575 13.85C21.225 14.66 22.455 15.755 23.265 17.135C24.075 18.515 24.48 20.09 24.48 21.86C24.48 24.02 23.85 25.925 22.59 27.575C21.36 29.225 19.5 30.32 17.01 30.86L24.885 44H19.98ZM7.56 27.89H13.59C15.81 27.89 17.475 27.35 18.585 26.27C19.695 25.16 20.25 23.69 20.25 21.86C20.25 20 19.695 18.56 18.585 17.54C17.505 16.52 15.84 16.01 13.59 16.01H7.56V27.89ZM52.9349 30.725C52.9349 31.505 52.8899 32.33 52.7999 33.2H33.0899C33.2399 35.63 34.0649 37.535 35.5649 38.915C37.0949 40.265 38.9399 40.94 41.0999 40.94C42.8699 40.94 44.3399 40.535 45.5099 39.725C46.7099 38.885 47.5499 37.775 48.0299 36.395H52.4399C51.7799 38.765 50.4599 40.7 48.4799 42.2C46.4999 43.67 44.0399 44.405 41.0999 44.405C38.7599 44.405 36.6599 43.88 34.7999 42.83C32.9699 41.78 31.5299 40.295 30.4799 38.375C29.4299 36.425 28.9049 34.175 28.9049 31.625C28.9049 29.075 29.4149 26.84 30.4349 24.92C31.4549 23 32.8799 21.53 34.7099 20.51C36.5699 19.46 38.6999 18.935 41.0999 18.935C43.4399 18.935 45.5099 19.445 47.3099 20.465C49.1099 21.485 50.4899 22.895 51.4499 24.695C52.4399 26.465 52.9349 28.475 52.9349 30.725ZM48.7049 29.87C48.7049 28.31 48.3599 26.975 47.6699 25.865C46.9799 24.725 46.0349 23.87 44.8349 23.3C43.6649 22.7 42.3599 22.4 40.9199 22.4C38.8499 22.4 37.0799 23.06 35.6099 24.38C34.1699 25.7 33.3449 27.53 33.1349 29.87H48.7049ZM68.1022 18.935C70.2322 18.935 72.0922 19.4 73.6822 20.33C75.3022 21.26 76.5022 22.43 77.2822 23.84V19.34H81.4222V44.54C81.4222 46.79 80.9422 48.785 79.9822 50.525C79.0222 52.295 77.6422 53.675 75.8422 54.665C74.0722 55.655 72.0022 56.15 69.6322 56.15C66.3922 56.15 63.6922 55.385 61.5322 53.855C59.3722 52.325 58.0972 50.24 57.7072 47.6H61.7572C62.2072 49.1 63.1372 50.3 64.5472 51.2C65.9572 52.13 67.6522 52.595 69.6322 52.595C71.8822 52.595 73.7122 51.89 75.1222 50.48C76.5622 49.07 77.2822 47.09 77.2822 44.54V39.365C76.4722 40.805 75.2722 42.005 73.6822 42.965C72.0922 43.925 70.2322 44.405 68.1022 44.405C65.9122 44.405 63.9172 43.865 62.1172 42.785C60.3472 41.705 58.9522 40.19 57.9322 38.24C56.9122 36.29 56.4022 34.07 56.4022 31.58C56.4022 29.06 56.9122 26.855 57.9322 24.965C58.9522 23.045 60.3472 21.56 62.1172 20.51C63.9172 19.46 65.9122 18.935 68.1022 18.935ZM77.2822 31.625C77.2822 29.765 76.9072 28.145 76.1572 26.765C75.4072 25.385 74.3872 24.335 73.0972 23.615C71.8372 22.865 70.4422 22.49 68.9122 22.49C67.3822 22.49 65.9872 22.85 64.7272 23.57C63.4672 24.29 62.4622 25.34 61.7122 26.72C60.9622 28.1 60.5872 29.72 60.5872 31.58C60.5872 33.47 60.9622 35.12 61.7122 36.53C62.4622 37.91 63.4672 38.975 64.7272 39.725C65.9872 40.445 67.3822 40.805 68.9122 40.805C70.4422 40.805 71.8372 40.445 73.0972 39.725C74.3872 38.975 75.4072 37.91 76.1572 36.53C76.9072 35.12 77.2822 33.485 77.2822 31.625ZM90.0494 15.335C89.2694 15.335 88.6094 15.065 88.0694 14.525C87.5294 13.985 87.2594 13.325 87.2594 12.545C87.2594 11.765 87.5294 11.105 88.0694 10.565C88.6094 10.025 89.2694 9.755 90.0494 9.755C90.7994 9.755 91.4294 10.025 91.9394 10.565C92.4794 11.105 92.7494 11.765 92.7494 12.545C92.7494 13.325 92.4794 13.985 91.9394 14.525C91.4294 15.065 90.7994 15.335 90.0494 15.335ZM92.0294 19.34V44H87.9344V19.34H92.0294ZM107.331 44.405C105.441 44.405 103.746 44.09 102.246 43.46C100.746 42.8 99.5606 41.9 98.6906 40.76C97.8206 39.59 97.3406 38.255 97.2506 36.755H101.481C101.601 37.985 102.171 38.99 103.191 39.77C104.241 40.55 105.606 40.94 107.286 40.94C108.846 40.94 110.076 40.595 110.976 39.905C111.876 39.215 112.326 38.345 112.326 37.295C112.326 36.215 111.846 35.42 110.886 34.91C109.926 34.37 108.441 33.845 106.431 33.335C104.601 32.855 103.101 32.375 101.931 31.895C100.791 31.385 99.8006 30.65 98.9606 29.69C98.1506 28.7 97.7456 27.41 97.7456 25.82C97.7456 24.56 98.1206 23.405 98.8706 22.355C99.6206 21.305 100.686 20.48 102.066 19.88C103.446 19.25 105.021 18.935 106.791 18.935C109.521 18.935 111.726 19.625 113.406 21.005C115.086 22.385 115.986 24.275 116.106 26.675H112.011C111.921 25.385 111.396 24.35 110.436 23.57C109.506 22.79 108.246 22.4 106.656 22.4C105.186 22.4 104.016 22.715 103.146 23.345C102.276 23.975 101.841 24.8 101.841 25.82C101.841 26.63 102.096 27.305 102.606 27.845C103.146 28.355 103.806 28.775 104.586 29.105C105.396 29.405 106.506 29.75 107.916 30.14C109.686 30.62 111.126 31.1 112.236 31.58C113.346 32.03 114.291 32.72 115.071 33.65C115.881 34.58 116.301 35.795 116.331 37.295C116.331 38.645 115.956 39.86 115.206 40.94C114.456 42.02 113.391 42.875 112.011 43.505C110.661 44.105 109.101 44.405 107.331 44.405ZM126.698 22.715V37.25C126.698 38.45 126.953 39.305 127.463 39.815C127.973 40.295 128.858 40.535 130.118 40.535H133.133V44H129.443C127.163 44 125.453 43.475 124.313 42.425C123.173 41.375 122.603 39.65 122.603 37.25V22.715H119.408V19.34H122.603V13.13H126.698V19.34H133.133V22.715H126.698ZM160.187 30.725C160.187 31.505 160.142 32.33 160.052 33.2H140.342C140.492 35.63 141.317 37.535 142.817 38.915C144.347 40.265 146.192 40.94 148.352 40.94C150.122 40.94 151.592 40.535 152.762 39.725C153.962 38.885 154.802 37.775 155.282 36.395H159.692C159.032 38.765 157.712 40.7 155.732 42.2C153.752 43.67 151.292 44.405 148.352 44.405C146.012 44.405 143.912 43.88 142.052 42.83C140.222 41.78 138.782 40.295 137.732 38.375C136.682 36.425 136.157 34.175 136.157 31.625C136.157 29.075 136.667 26.84 137.687 24.92C138.707 23 140.132 21.53 141.962 20.51C143.822 19.46 145.952 18.935 148.352 18.935C150.692 18.935 152.762 19.445 154.562 20.465C156.362 21.485 157.742 22.895 158.702 24.695C159.692 26.465 160.187 28.475 160.187 30.725ZM155.957 29.87C155.957 28.31 155.612 26.975 154.922 25.865C154.232 24.725 153.287 23.87 152.087 23.3C150.917 22.7 149.612 22.4 148.172 22.4C146.102 22.4 144.332 23.06 142.862 24.38C141.422 25.7 140.597 27.53 140.387 29.87H155.957ZM169.279 23.345C169.999 21.935 171.019 20.84 172.339 20.06C173.689 19.28 175.324 18.89 177.244 18.89V23.12H176.164C171.574 23.12 169.279 25.61 169.279 30.59V44H165.184V19.34H169.279V23.345ZM22.005 93.025H8.325L5.805 100H1.485L12.825 68.815H17.55L28.845 100H24.525L22.005 93.025ZM20.835 89.695L15.165 73.855L9.495 89.695H20.835ZM31.8493 87.625C31.8493 85.075 32.3593 82.855 33.3793 80.965C34.3993 79.045 35.8093 77.56 37.6093 76.51C39.4393 75.46 41.5243 74.935 43.8643 74.935C46.8943 74.935 49.3843 75.67 51.3343 77.14C53.3143 78.61 54.6193 80.65 55.2493 83.26H50.8393C50.4193 81.76 49.5943 80.575 48.3643 79.705C47.1643 78.835 45.6643 78.4 43.8643 78.4C41.5243 78.4 39.6343 79.21 38.1943 80.83C36.7543 82.42 36.0343 84.685 36.0343 87.625C36.0343 90.595 36.7543 92.89 38.1943 94.51C39.6343 96.13 41.5243 96.94 43.8643 96.94C45.6643 96.94 47.1643 96.52 48.3643 95.68C49.5643 94.84 50.3893 93.64 50.8393 92.08H55.2493C54.5893 94.6 53.2693 96.625 51.2893 98.155C49.3093 99.655 46.8343 100.405 43.8643 100.405C41.5243 100.405 39.4393 99.88 37.6093 98.83C35.8093 97.78 34.3993 96.295 33.3793 94.375C32.3593 92.455 31.8493 90.205 31.8493 87.625ZM58.7752 87.625C58.7752 85.075 59.2852 82.855 60.3052 80.965C61.3252 79.045 62.7352 77.56 64.5352 76.51C66.3652 75.46 68.4502 74.935 70.7902 74.935C73.8202 74.935 76.3102 75.67 78.2602 77.14C80.2402 78.61 81.5453 80.65 82.1752 83.26H77.7652C77.3452 81.76 76.5202 80.575 75.2902 79.705C74.0902 78.835 72.5902 78.4 70.7902 78.4C68.4502 78.4 66.5602 79.21 65.1202 80.83C63.6802 82.42 62.9602 84.685 62.9602 87.625C62.9602 90.595 63.6802 92.89 65.1202 94.51C66.5602 96.13 68.4502 96.94 70.7902 96.94C72.5902 96.94 74.0902 96.52 75.2902 95.68C76.4902 94.84 77.3152 93.64 77.7652 92.08H82.1752C81.5152 94.6 80.1952 96.625 78.2152 98.155C76.2352 99.655 73.7602 100.405 70.7902 100.405C68.4502 100.405 66.3652 99.88 64.5352 98.83C62.7352 97.78 61.3252 96.295 60.3052 94.375C59.2852 92.455 58.7752 90.205 58.7752 87.625ZM97.9862 100.405C95.6762 100.405 93.5762 99.88 91.6862 98.83C89.8262 97.78 88.3562 96.295 87.2762 94.375C86.2262 92.425 85.7012 90.175 85.7012 87.625C85.7012 85.105 86.2412 82.885 87.3212 80.965C88.4312 79.015 89.9312 77.53 91.8212 76.51C93.7112 75.46 95.8262 74.935 98.1662 74.935C100.506 74.935 102.621 75.46 104.511 76.51C106.401 77.53 107.886 79 108.966 80.92C110.076 82.84 110.631 85.075 110.631 87.625C110.631 90.175 110.061 92.425 108.921 94.375C107.811 96.295 106.296 97.78 104.376 98.83C102.456 99.88 100.326 100.405 97.9862 100.405ZM97.9862 96.805C99.4562 96.805 100.836 96.46 102.126 95.77C103.416 95.08 104.451 94.045 105.231 92.665C106.041 91.285 106.446 89.605 106.446 87.625C106.446 85.645 106.056 83.965 105.276 82.585C104.496 81.205 103.476 80.185 102.216 79.525C100.956 78.835 99.5912 78.49 98.1212 78.49C96.6212 78.49 95.2412 78.835 93.9812 79.525C92.7512 80.185 91.7612 81.205 91.0112 82.585C90.2612 83.965 89.8862 85.645 89.8862 87.625C89.8862 89.635 90.2462 91.33 90.9662 92.71C91.7162 94.09 92.7062 95.125 93.9362 95.815C95.1662 96.475 96.5162 96.805 97.9862 96.805ZM137.477 75.34V100H133.382V96.355C132.602 97.615 131.507 98.605 130.097 99.325C128.717 100.015 127.187 100.36 125.507 100.36C123.587 100.36 121.862 99.97 120.332 99.19C118.802 98.38 117.587 97.18 116.687 95.59C115.817 94 115.382 92.065 115.382 89.785V75.34H119.432V89.245C119.432 91.675 120.047 93.55 121.277 94.87C122.507 96.16 124.187 96.805 126.317 96.805C128.507 96.805 130.232 96.13 131.492 94.78C132.752 93.43 133.382 91.465 133.382 88.885V75.34H137.477ZM155.999 74.89C158.999 74.89 161.429 75.805 163.289 77.635C165.149 79.435 166.079 82.045 166.079 85.465V100H162.029V86.05C162.029 83.59 161.414 81.715 160.184 80.425C158.954 79.105 157.274 78.445 155.144 78.445C152.984 78.445 151.259 79.12 149.969 80.47C148.709 81.82 148.079 83.785 148.079 86.365V100H143.984V75.34H148.079V78.85C148.889 77.59 149.984 76.615 151.364 75.925C152.774 75.235 154.319 74.89 155.999 74.89ZM177.355 78.715V93.25C177.355 94.45 177.61 95.305 178.12 95.815C178.63 96.295 179.515 96.535 180.775 96.535H183.79V100H180.1C177.82 100 176.11 99.475 174.97 98.425C173.83 97.375 173.26 95.65 173.26 93.25V78.715H170.065V75.34H173.26V69.13H177.355V75.34H183.79V78.715H177.355Z" fill="#FF6780"/>
<path d="M19.98 44L19.1159 44.5033L19.4052 45H19.98V44ZM12.51 31.175L13.3741 30.6717L13.0848 30.175H12.51V31.175ZM7.56 31.175V30.175H6.56V31.175H7.56ZM7.56 44V45H8.56V44H7.56ZM3.465 44H2.465V45H3.465V44ZM3.465 12.635V11.635H2.465V12.635H3.465ZM19.575 13.85L19.1278 14.7445L19.1343 14.7477L19.575 13.85ZM22.59 27.575L21.7952 26.968L21.7883 26.9773L22.59 27.575ZM17.01 30.86L16.7981 29.8827L15.4356 30.1782L16.1522 31.3741L17.01 30.86ZM24.885 44V45H26.6502L25.7428 43.4859L24.885 44ZM7.56 27.89H6.56V28.89H7.56V27.89ZM18.585 26.27L19.2824 26.9868L19.2921 26.9771L18.585 26.27ZM18.585 17.54L17.8983 18.2671L17.9084 18.2763L18.585 17.54ZM7.56 16.01V15.01H6.56V16.01H7.56ZM20.8441 43.4967L13.3741 30.6717L11.6459 31.6783L19.1159 44.5033L20.8441 43.4967ZM12.51 30.175H7.56V32.175H12.51V30.175ZM6.56 31.175V44H8.56V31.175H6.56ZM7.56 43H3.465V45H7.56V43ZM4.465 44V12.635H2.465V44H4.465ZM3.465 13.635H13.59V11.635H3.465V13.635ZM13.59 13.635C15.8508 13.635 17.6827 14.0219 19.1278 14.7444L20.0222 12.9556C18.2273 12.0581 16.0692 11.635 13.59 11.635V13.635ZM19.1343 14.7477C20.6353 15.4845 21.7059 16.4543 22.4026 17.6412L24.1274 16.6288C23.2041 15.0557 21.8147 13.8355 20.0157 12.9523L19.1343 14.7477ZM22.4026 17.6412C23.1132 18.8518 23.48 20.2486 23.48 21.86H25.48C25.48 19.9314 25.0368 18.1782 24.1274 16.6288L22.4026 17.6412ZM23.48 21.86C23.48 23.8102 22.9164 25.4998 21.7952 26.9681L23.3848 28.1819C24.7836 26.3502 25.48 24.2298 25.48 21.86H23.48ZM21.7883 26.9773C20.7346 28.3907 19.1104 29.3812 16.7981 29.8827L17.2219 31.8373C19.8896 31.2588 21.9854 30.0593 23.3917 28.1727L21.7883 26.9773ZM16.1522 31.3741L24.0273 44.5141L25.7428 43.4859L17.8678 30.3459L16.1522 31.3741ZM24.885 43H19.98V45H24.885V43ZM7.56 28.89H13.59V26.89H7.56V28.89ZM13.59 28.89C15.9574 28.89 17.9179 28.3144 19.2824 26.9867L17.8876 25.5533C17.0322 26.3856 15.6626 26.89 13.59 26.89V28.89ZM19.2921 26.9771C20.6207 25.6485 21.25 23.9077 21.25 21.86H19.25C19.25 23.4723 18.7693 24.6715 17.8779 25.5629L19.2921 26.9771ZM21.25 21.86C21.25 19.7905 20.6244 18.0559 19.2616 16.8037L17.9084 18.2763C18.7656 19.0641 19.25 20.2095 19.25 21.86H21.25ZM19.2716 16.813C17.93 15.5459 15.9671 15.01 13.59 15.01V17.01C15.7129 17.01 17.08 17.4941 17.8984 18.267L19.2716 16.813ZM13.59 15.01H7.56V17.01H13.59V15.01ZM6.56 16.01V27.89H8.56V16.01H6.56ZM52.7999 33.2V34.2H53.7018L53.7946 33.3029L52.7999 33.2ZM33.0899 33.2V32.2H32.0263L32.0918 33.2616L33.0899 33.2ZM35.5649 38.915L34.8879 39.6509L34.8955 39.658L34.9033 39.6648L35.5649 38.915ZM45.5099 39.725L46.0791 40.5472L46.0834 40.5442L45.5099 39.725ZM48.0299 36.395V35.395H47.319L47.0854 36.0665L48.0299 36.395ZM52.4399 36.395L53.4033 36.6633L53.7565 35.395H52.4399V36.395ZM48.4799 42.2L49.0761 43.0029L49.0838 42.9971L48.4799 42.2ZM34.7999 42.83L34.3022 43.6974L34.3083 43.7008L34.7999 42.83ZM30.4799 38.375L29.5994 38.8491L29.6026 38.8548L30.4799 38.375ZM30.4349 24.92L31.318 25.3892L30.4349 24.92ZM34.7099 20.51L35.1968 21.3835L35.2015 21.3808L34.7099 20.51ZM47.3099 20.465L46.8169 21.335L47.3099 20.465ZM51.4499 24.695L50.5676 25.1656L50.5723 25.1744L50.5772 25.1832L51.4499 24.695ZM48.7049 29.87V30.87H49.7049V29.87H48.7049ZM47.6699 25.865L46.8144 26.3828L46.8206 26.3929L47.6699 25.865ZM44.8349 23.3L44.3786 24.1898L44.3921 24.1968L44.4059 24.2033L44.8349 23.3ZM35.6099 24.38L34.9418 23.6359L34.9342 23.6428L35.6099 24.38ZM33.1349 29.87L32.1389 29.7806L32.0412 30.87H33.1349V29.87ZM51.9349 30.725C51.9349 31.4668 51.8921 32.2573 51.8052 33.0971L53.7946 33.3029C53.8877 32.4027 53.9349 31.5432 53.9349 30.725H51.9349ZM52.7999 32.2H33.0899V34.2H52.7999V32.2ZM32.0918 33.2616C32.2544 35.896 33.1618 38.0629 34.8879 39.6509L36.242 38.1791C34.9681 37.0071 34.2254 35.364 34.088 33.1384L32.0918 33.2616ZM34.9033 39.6648C36.6273 41.186 38.7118 41.94 41.0999 41.94V39.94C39.168 39.94 37.5625 39.344 36.2266 38.1652L34.9033 39.6648ZM41.0999 41.94C43.0234 41.94 44.7051 41.4985 46.0791 40.5472L44.9407 38.9028C43.9748 39.5715 42.7165 39.94 41.0999 39.94V41.94ZM46.0834 40.5442C47.4551 39.584 48.4252 38.3026 48.9744 36.7235L47.0854 36.0665C46.6747 37.2474 45.9648 38.186 44.9365 38.9058L46.0834 40.5442ZM48.0299 37.395H52.4399V35.395H48.0299V37.395ZM51.4766 36.1267C50.8759 38.2837 49.6834 40.0337 47.8761 41.4029L49.0838 42.9971C51.2364 41.3663 52.6839 39.2463 53.4033 36.6633L51.4766 36.1267ZM47.8838 41.3971C46.1075 42.7159 43.8677 43.405 41.0999 43.405V45.405C44.2122 45.405 46.8924 44.6241 49.076 43.0029L47.8838 41.3971ZM41.0999 43.405C38.9153 43.405 36.9875 42.9166 35.2915 41.9592L34.3083 43.7008C36.3324 44.8434 38.6046 45.405 41.0999 45.405V43.405ZM35.2976 41.9626C33.6336 41.0079 32.3223 39.6598 31.3573 37.8952L29.6026 38.8548C30.7375 40.9302 32.3063 42.5521 34.3023 43.6974L35.2976 41.9626ZM31.3604 37.9009C30.4 36.1173 29.9049 34.0348 29.9049 31.625H27.9049C27.9049 34.3152 28.4598 36.7327 29.5995 38.8491L31.3604 37.9009ZM29.9049 31.625C29.9049 29.2103 30.3871 27.1416 31.318 25.3892L29.5518 24.4508C28.4428 26.5384 27.9049 28.9397 27.9049 31.625H29.9049ZM31.318 25.3892C32.2513 23.6325 33.5416 22.306 35.1968 21.3835L34.2231 19.6365C32.2182 20.754 30.6586 22.3675 29.5518 24.4508L31.318 25.3892ZM35.2015 21.3808C36.8937 20.4256 38.8505 19.935 41.0999 19.935V17.935C38.5494 17.935 36.2462 18.4944 34.2183 19.6392L35.2015 21.3808ZM41.0999 19.935C43.2902 19.935 45.1861 20.4109 46.8169 21.335L47.8029 19.595C45.8337 18.4791 43.5897 17.935 41.0999 17.935V19.935ZM46.8169 21.335C48.4544 22.2629 49.6982 23.5355 50.5676 25.1656L52.3323 24.2244C51.2817 22.2545 49.7655 20.7071 47.8029 19.595L46.8169 21.335ZM50.5772 25.1832C51.4749 26.7881 51.9349 28.6268 51.9349 30.725H53.9349C53.9349 28.3232 53.405 26.1419 52.3227 24.2068L50.5772 25.1832ZM49.7049 29.87C49.7049 28.1599 49.3253 26.6339 48.5192 25.3371L46.8206 26.3929C47.3945 27.3161 47.7049 28.4601 47.7049 29.87H49.7049ZM48.5254 25.3472C47.7344 24.0403 46.6414 23.051 45.264 22.3967L44.4059 24.2033C45.4285 24.689 46.2255 25.4097 46.8144 26.3828L48.5254 25.3472ZM45.2912 22.4102C43.967 21.7311 42.5032 21.4 40.9199 21.4V23.4C42.2166 23.4 43.3629 23.6689 44.3786 24.1898L45.2912 22.4102ZM40.9199 21.4C38.6162 21.4 36.6047 22.1427 34.9418 23.636L36.2781 25.124C37.5552 23.9773 39.0837 23.4 40.9199 23.4V21.4ZM34.9342 23.6428C33.2746 25.1641 32.3665 27.2454 32.1389 29.7806L34.1309 29.9594C34.3234 27.8146 35.0653 26.2359 36.2857 25.1172L34.9342 23.6428ZM33.1349 30.87H48.7049V28.87H33.1349V30.87ZM73.6822 20.33L73.1773 21.1932L73.1843 21.1973L73.6822 20.33ZM77.2822 23.84L76.4072 24.3241L78.2822 23.84H77.2822ZM77.2822 19.34V18.34H76.2822V19.34H77.2822ZM81.4222 19.34H82.4222V18.34H81.4222V19.34ZM79.9822 50.525L79.1066 50.0419L79.1032 50.0482L79.9822 50.525ZM75.8422 54.665L75.3603 53.7888L75.354 53.7922L75.8422 54.665ZM61.5322 53.855L60.9542 54.671L61.5322 53.855ZM57.7072 47.6V46.6H56.5486L56.7179 47.7461L57.7072 47.6ZM61.7572 47.6L62.715 47.3127L62.5012 46.6H61.7572V47.6ZM64.5472 51.2L65.0978 50.3652L65.0915 50.3611L65.0852 50.3571L64.5472 51.2ZM75.1222 50.48L74.4225 49.7654L74.4151 49.7729L75.1222 50.48ZM77.2822 39.365H78.2822V35.5475L76.4106 38.8747L77.2822 39.365ZM73.6822 42.965L73.1653 42.1089L73.6822 42.965ZM62.1172 42.785L61.5963 43.6387L61.6027 43.6425L62.1172 42.785ZM57.9322 38.24L58.8183 37.7765L57.9322 38.24ZM57.9322 24.965L58.8122 25.4399L58.8153 25.4342L57.9322 24.965ZM62.1172 20.51L61.6133 19.6462L61.607 19.6499L62.1172 20.51ZM73.0972 23.615L72.5857 24.4743L72.5977 24.4814L72.6098 24.4882L73.0972 23.615ZM64.7272 23.57L64.2311 22.7018L64.7272 23.57ZM61.7122 26.72L62.5908 27.1975L61.7122 26.72ZM61.7122 36.53L60.8293 36.9996L60.8336 37.0075L61.7122 36.53ZM64.7272 39.725L64.2157 40.5843L64.2234 40.5888L64.2311 40.5932L64.7272 39.725ZM73.0972 39.725L73.5934 40.5933L73.5998 40.5895L73.0972 39.725ZM76.1572 36.53L77.0359 37.0075L77.0401 36.9996L76.1572 36.53ZM68.1022 19.935C70.0829 19.935 71.7631 20.366 73.1773 21.1932L74.1871 19.4668C72.4213 18.434 70.3815 17.935 68.1022 17.935V19.935ZM73.1843 21.1973C74.6716 22.0511 75.7288 23.0978 76.4072 24.3241L78.1572 23.3559C77.2756 21.7622 75.9328 20.4689 74.1801 19.4627L73.1843 21.1973ZM78.2822 23.84V19.34H76.2822V23.84H78.2822ZM77.2822 20.34H81.4222V18.34H77.2822V20.34ZM80.4222 19.34V44.54H82.4222V19.34H80.4222ZM80.4222 44.54C80.4222 46.6437 79.9747 48.4685 79.1066 50.0419L80.8578 51.0081C81.9097 49.1015 82.4222 46.9363 82.4222 44.54H80.4222ZM79.1032 50.0482C78.2365 51.6462 76.996 52.8892 75.3603 53.7888L76.3241 55.5412C78.2884 54.4608 79.8079 52.9438 80.8612 51.0018L79.1032 50.0482ZM75.354 53.7922C73.7566 54.6857 71.8603 55.15 69.6322 55.15V57.15C72.1441 57.15 74.3878 56.6243 76.3304 55.5378L75.354 53.7922ZM69.6322 55.15C66.5522 55.15 64.0665 54.4247 62.1102 53.039L60.9542 54.671C63.3179 56.3453 66.2322 57.15 69.6322 57.15V55.15ZM62.1102 53.039C60.175 51.6682 59.0469 49.8263 58.6965 47.4539L56.7179 47.7461C57.1475 50.6537 58.5694 52.9818 60.9542 54.671L62.1102 53.039ZM57.7072 48.6H61.7572V46.6H57.7072V48.6ZM60.7994 47.8873C61.3231 49.6332 62.4121 51.0235 64.0092 52.0429L65.0852 50.3571C63.8623 49.5765 63.0913 48.5668 62.715 47.3127L60.7994 47.8873ZM63.9966 52.0348C65.5966 53.0901 67.4909 53.595 69.6322 53.595V51.595C67.8135 51.595 66.3178 51.1699 65.0978 50.3652L63.9966 52.0348ZM69.6322 53.595C72.1103 53.595 74.2071 52.8094 75.8293 51.1871L74.4151 49.7729C73.2173 50.9706 71.6541 51.595 69.6322 51.595V53.595ZM75.8218 51.1945C77.5018 49.5496 78.2822 47.2836 78.2822 44.54H76.2822C76.2822 46.8964 75.6226 48.5904 74.4226 49.7655L75.8218 51.1945ZM78.2822 44.54V39.365H76.2822V44.54H78.2822ZM76.4106 38.8747C75.6954 40.1463 74.6262 41.2269 73.1653 42.1089L74.1991 43.8211C75.9182 42.7831 77.249 41.4637 78.1538 39.8553L76.4106 38.8747ZM73.1653 42.1089C71.7531 42.9616 70.0773 43.405 68.1022 43.405V45.405C70.3871 45.405 72.4313 44.8884 74.1991 43.8211L73.1653 42.1089ZM68.1022 43.405C66.0852 43.405 64.2694 42.9101 62.6317 41.9275L61.6027 43.6425C63.565 44.8199 65.7392 45.405 68.1022 45.405V43.405ZM62.6381 41.9314C61.0326 40.9517 59.7596 39.576 58.8183 37.7765L57.0461 38.7035C58.1448 40.804 59.6619 42.4583 61.5963 43.6386L62.6381 41.9314ZM58.8183 37.7765C57.8825 35.9874 57.4022 33.93 57.4022 31.58H55.4022C55.4022 34.21 55.9419 36.5926 57.0461 38.7035L58.8183 37.7765ZM57.4022 31.58C57.4022 29.197 57.8836 27.1606 58.8122 25.4399L57.0522 24.4901C55.9408 26.5494 55.4022 28.923 55.4022 31.58H57.4022ZM58.8153 25.4342C59.7543 23.6667 61.0243 22.3211 62.6274 21.3701L61.607 19.6499C59.6701 20.7989 58.1501 22.4233 57.0491 24.4958L58.8153 25.4342ZM62.6211 21.3738C64.2602 20.4176 66.0799 19.935 68.1022 19.935V17.935C65.7445 17.935 63.5742 18.5024 61.6133 19.6462L62.6211 21.3738ZM78.2822 31.625C78.2822 29.6289 77.879 27.8389 77.0358 26.2875L75.2786 27.2425C75.9354 28.4511 76.2822 29.9011 76.2822 31.625H78.2822ZM77.0358 26.2875C76.2014 24.7522 75.0504 23.5599 73.5846 22.7418L72.6098 24.4882C73.724 25.1101 74.613 26.0178 75.2786 27.2425L77.0358 26.2875ZM73.6087 22.7557C72.1871 21.9095 70.6141 21.49 68.9122 21.49V23.49C70.2703 23.49 71.4873 23.8205 72.5857 24.4743L73.6087 22.7557ZM68.9122 21.49C67.218 21.49 65.6505 21.8907 64.2311 22.7018L65.2233 24.4382C66.3239 23.8093 67.5464 23.49 68.9122 23.49V21.49ZM64.2311 22.7018C62.7965 23.5215 61.6647 24.7132 60.8336 26.2425L62.5908 27.1975C63.2597 25.9668 64.1379 25.0585 65.2233 24.4382L64.2311 22.7018ZM60.8336 26.2425C59.9904 27.7939 59.5872 29.5839 59.5872 31.58H61.5872C61.5872 29.8561 61.934 28.4061 62.5908 27.1975L60.8336 26.2425ZM59.5872 31.58C59.5872 33.6038 59.9895 35.4207 60.8293 36.9996L62.5951 36.0604C61.9349 34.8193 61.5872 33.3362 61.5872 31.58H59.5872ZM60.8336 37.0075C61.6631 38.5338 62.7902 39.7358 64.2157 40.5843L65.2387 38.8657C64.1442 38.2142 63.2613 37.2862 62.5908 36.0525L60.8336 37.0075ZM64.2311 40.5932C65.6505 41.4043 67.218 41.805 68.9122 41.805V39.805C67.5464 39.805 66.3239 39.4857 65.2233 38.8568L64.2311 40.5932ZM68.9122 41.805C70.6064 41.805 72.174 41.4043 73.5933 40.5932L72.6011 38.8568C71.5005 39.4857 70.278 39.805 68.9122 39.805V41.805ZM73.5998 40.5895C75.0567 39.7425 76.2031 38.5397 77.0358 37.0075L75.2786 36.0525C74.6113 37.2803 73.7177 38.2075 72.5946 38.8605L73.5998 40.5895ZM77.0401 36.9996C77.8788 35.4229 78.2822 33.6217 78.2822 31.625H76.2822C76.2822 33.3483 75.9356 34.8171 75.2743 36.0604L77.0401 36.9996ZM88.0694 14.525L88.7765 13.8179L88.0694 14.525ZM88.0694 10.565L88.7765 11.2721L88.0694 10.565ZM91.9394 10.565L91.2123 11.2516L91.2222 11.262L91.2323 11.2721L91.9394 10.565ZM91.9394 14.525L91.2323 13.8179L91.2222 13.828L91.2123 13.8384L91.9394 14.525ZM92.0294 19.34H93.0294V18.34H92.0294V19.34ZM92.0294 44V45H93.0294V44H92.0294ZM87.9344 44H86.9344V45H87.9344V44ZM87.9344 19.34V18.34H86.9344V19.34H87.9344ZM90.0494 14.335C89.5282 14.335 89.1245 14.1659 88.7765 13.8179L87.3623 15.2321C88.0942 15.9641 89.0105 16.335 90.0494 16.335V14.335ZM88.7765 13.8179C88.4285 13.4699 88.2594 13.0661 88.2594 12.545H86.2594C86.2594 13.5839 86.6303 14.5001 87.3623 15.2321L88.7765 13.8179ZM88.2594 12.545C88.2594 12.0239 88.4285 11.6201 88.7765 11.2721L87.3623 9.85789C86.6303 10.5899 86.2594 11.5061 86.2594 12.545H88.2594ZM88.7765 11.2721C89.1245 10.9241 89.5282 10.755 90.0494 10.755V8.755C89.0105 8.755 88.0942 9.12591 87.3623 9.85789L88.7765 11.2721ZM90.0494 10.755C90.5273 10.755 90.8933 10.9138 91.2123 11.2516L92.6664 9.87838C91.9654 9.13615 91.0714 8.755 90.0494 8.755V10.755ZM91.2323 11.2721C91.5803 11.6201 91.7494 12.0239 91.7494 12.545H93.7494C93.7494 11.5061 93.3784 10.5899 92.6465 9.85789L91.2323 11.2721ZM91.7494 12.545C91.7494 13.0661 91.5803 13.4699 91.2323 13.8179L92.6465 15.2321C93.3784 14.5001 93.7494 13.5839 93.7494 12.545H91.7494ZM91.2123 13.8384C90.8933 14.1762 90.5273 14.335 90.0494 14.335V16.335C91.0714 16.335 91.9654 15.9538 92.6664 15.2116L91.2123 13.8384ZM91.0294 19.34V44H93.0294V19.34H91.0294ZM92.0294 43H87.9344V45H92.0294V43ZM88.9344 44V19.34H86.9344V44H88.9344ZM87.9344 20.34H92.0294V18.34H87.9344V20.34ZM102.246 43.46L101.843 44.3753L101.851 44.3787L101.858 44.382L102.246 43.46ZM98.6906 40.76L97.888 41.3568L97.8956 41.3667L98.6906 40.76ZM97.2506 36.755V35.755H96.1888L96.2524 36.8149L97.2506 36.755ZM101.481 36.755L102.476 36.6579L102.388 35.755H101.481V36.755ZM103.191 39.77L102.583 40.5644L102.594 40.5727L103.191 39.77ZM110.886 34.91L110.395 35.7816L110.406 35.7875L110.416 35.7931L110.886 34.91ZM106.431 33.335L106.177 34.3023L106.185 34.3043L106.431 33.335ZM101.931 31.895L101.522 32.8078L101.537 32.8142L101.551 32.8202L101.931 31.895ZM98.9606 29.69L98.1866 30.3232L98.1971 30.336L98.208 30.3485L98.9606 29.69ZM98.8706 22.355L98.0568 21.7738L98.8706 22.355ZM102.066 19.88L102.464 20.7971L102.473 20.7935L102.481 20.7897L102.066 19.88ZM116.106 26.675V27.675H117.157L117.104 26.6251L116.106 26.675ZM112.011 26.675L111.013 26.7446L111.078 27.675H112.011V26.675ZM110.436 23.57L109.793 24.3362L109.799 24.3412L109.805 24.3461L110.436 23.57ZM103.146 23.345L102.559 22.5351L103.146 23.345ZM102.606 27.845L101.879 28.5316L101.898 28.5524L101.919 28.572L102.606 27.845ZM104.586 29.105L104.196 30.026L104.217 30.0348L104.238 30.0427L104.586 29.105ZM107.916 30.14L107.649 31.1038L107.654 31.1051L107.916 30.14ZM112.236 31.58L111.839 32.4979L111.849 32.5024L111.86 32.5067L112.236 31.58ZM115.071 33.65L114.304 34.2926L114.31 34.2998L114.316 34.3068L115.071 33.65ZM116.331 37.295H117.331V37.285L117.33 37.275L116.331 37.295ZM115.206 40.94L114.384 40.3696L114.384 40.3696L115.206 40.94ZM112.011 43.505L112.417 44.4189L112.426 44.4147L112.011 43.505ZM107.331 43.405C105.552 43.405 103.992 43.1089 102.633 42.538L101.858 44.382C103.499 45.0711 105.329 45.405 107.331 45.405V43.405ZM102.648 42.5447C101.281 41.9429 100.239 41.1408 99.4855 40.1533L97.8956 41.3667C98.882 42.6592 100.21 43.6571 101.843 44.3753L102.648 42.5447ZM99.493 40.1633C98.7428 39.1544 98.3275 38.0072 98.2488 36.6951L96.2524 36.8149C96.3536 38.5028 96.8983 40.0256 97.8881 41.3567L99.493 40.1633ZM97.2506 37.755H101.481V35.755H97.2506V37.755ZM100.485 36.8521C100.633 38.3702 101.352 39.6232 102.583 40.5644L103.798 38.9756C102.989 38.3568 102.568 37.5998 102.476 36.6579L100.485 36.8521ZM102.594 40.5727C103.86 41.5131 105.452 41.94 107.286 41.94V39.94C105.759 39.94 104.621 39.5868 103.787 38.9673L102.594 40.5727ZM107.286 41.94C108.984 41.94 110.454 41.5647 111.584 40.6986L110.367 39.1114C109.697 39.6253 108.707 39.94 107.286 39.94V41.94ZM111.584 40.6986C112.708 39.8369 113.326 38.6837 113.326 37.295H111.326C111.326 38.0063 111.043 38.5931 110.367 39.1114L111.584 40.6986ZM113.326 37.295C113.326 36.6029 113.17 35.9493 112.822 35.3719C112.473 34.7949 111.967 34.3521 111.355 34.0269L110.416 35.7931C110.764 35.9779 110.978 36.1876 111.11 36.4056C111.241 36.6232 111.326 36.9071 111.326 37.295H113.326ZM111.376 34.0384C110.299 33.4326 108.711 32.8819 106.677 32.3657L106.185 34.3043C108.17 34.8081 109.552 35.3074 110.395 35.7816L111.376 34.0384ZM106.684 32.3677C104.878 31.894 103.424 31.427 102.31 30.9698L101.551 32.8202C102.777 33.323 104.323 33.816 106.177 34.3023L106.684 32.3677ZM102.339 30.9822C101.334 30.5324 100.46 29.8853 99.7132 29.0315L98.208 30.3485C99.1409 31.4147 100.248 32.2376 101.522 32.8078L102.339 30.9822ZM99.7345 29.0568C99.1035 28.2855 98.7456 27.2368 98.7456 25.82H96.7456C96.7456 27.5832 97.1977 29.1145 98.1866 30.3232L99.7345 29.0568ZM98.7456 25.82C98.7456 24.7737 99.0523 23.821 99.6843 22.9362L98.0568 21.7738C97.1888 22.989 96.7456 24.3463 96.7456 25.82H98.7456ZM99.6843 22.9362C100.313 22.0567 101.223 21.337 102.464 20.7971L101.667 18.9629C100.149 19.623 98.9286 20.5533 98.0568 21.7738L99.6843 22.9362ZM102.481 20.7897C103.711 20.2283 105.14 19.935 106.791 19.935V17.935C104.901 17.935 103.181 18.2717 101.65 18.9703L102.481 20.7897ZM106.791 19.935C109.35 19.935 111.312 20.5791 112.771 21.7777L114.04 20.2323C112.14 18.6709 109.691 17.935 106.791 17.935V19.935ZM112.771 21.7777C114.209 22.9589 114.999 24.5734 115.107 26.7249L117.104 26.6251C116.972 23.9766 115.962 21.8111 114.04 20.2323L112.771 21.7777ZM116.106 25.675H112.011V27.675H116.106V25.675ZM113.008 26.6054C112.9 25.0534 112.252 23.7572 111.066 22.7939L109.805 24.3461C110.539 24.9428 110.941 25.7166 111.013 26.7446L113.008 26.6054ZM111.078 22.8038C109.919 21.8313 108.407 21.4 106.656 21.4V23.4C108.084 23.4 109.092 23.7487 109.793 24.3362L111.078 22.8038ZM106.656 21.4C105.051 21.4 103.652 21.7433 102.559 22.5351L103.732 24.1549C104.379 23.6867 105.32 23.4 106.656 23.4V21.4ZM102.559 22.5351C101.446 23.3414 100.841 24.4598 100.841 25.82H102.841C102.841 25.1402 103.106 24.6086 103.732 24.1549L102.559 22.5351ZM100.841 25.82C100.841 26.8601 101.177 27.7884 101.879 28.5316L103.333 27.1584C103.014 26.8216 102.841 26.3999 102.841 25.82H100.841ZM101.919 28.572C102.557 29.1745 103.321 29.656 104.196 30.026L104.975 28.184C104.29 27.894 103.734 27.5355 103.292 27.118L101.919 28.572ZM104.238 30.0427C105.087 30.357 106.228 30.7107 107.649 31.1038L108.182 29.1762C106.784 28.7893 105.704 28.453 104.933 28.1672L104.238 30.0427ZM107.654 31.1051C109.399 31.5783 110.789 32.0438 111.839 32.4979L112.632 30.6621C111.462 30.1562 109.972 29.6617 108.177 29.1749L107.654 31.1051ZM111.86 32.5067C112.816 32.8945 113.628 33.486 114.304 34.2926L115.837 33.0074C114.953 31.9539 113.875 31.1655 112.611 30.6533L111.86 32.5067ZM114.316 34.3068C114.941 35.0238 115.304 35.9968 115.331 37.315L117.33 37.275C117.297 35.5932 116.82 34.1362 115.825 32.9932L114.316 34.3068ZM115.331 37.295C115.331 38.4469 115.015 39.4618 114.384 40.3696L116.027 41.5104C116.897 40.2582 117.331 38.8431 117.331 37.295H115.331ZM114.384 40.3696C113.752 41.2807 112.837 42.0283 111.595 42.5953L112.426 44.4147C113.944 43.7217 115.16 42.7593 116.027 41.5104L114.384 40.3696ZM111.604 42.5912C110.405 43.1243 108.988 43.405 107.331 43.405V45.405C109.213 45.405 110.916 45.0857 112.417 44.4188L111.604 42.5912ZM126.698 22.715V21.715H125.698V22.715H126.698ZM127.463 39.815L126.756 40.5221L126.767 40.5328L126.778 40.5432L127.463 39.815ZM133.133 40.535H134.133V39.535H133.133V40.535ZM133.133 44V45H134.133V44H133.133ZM122.603 22.715H123.603V21.715H122.603V22.715ZM119.408 22.715H118.408V23.715H119.408V22.715ZM119.408 19.34V18.34H118.408V19.34H119.408ZM122.603 19.34V20.34H123.603V19.34H122.603ZM122.603 13.13V12.13H121.603V13.13H122.603ZM126.698 13.13H127.698V12.13H126.698V13.13ZM126.698 19.34H125.698V20.34H126.698V19.34ZM133.133 19.34H134.133V18.34H133.133V19.34ZM133.133 22.715V23.715H134.133V22.715H133.133ZM125.698 22.715V37.25H127.698V22.715H125.698ZM125.698 37.25C125.698 38.5486 125.967 39.7328 126.756 40.5221L128.17 39.1079C127.94 38.8772 127.698 38.3514 127.698 37.25H125.698ZM126.778 40.5432C127.574 41.2926 128.788 41.535 130.118 41.535V39.535C128.929 39.535 128.372 39.2974 128.149 39.0868L126.778 40.5432ZM130.118 41.535H133.133V39.535H130.118V41.535ZM132.133 40.535V44H134.133V40.535H132.133ZM133.133 43H129.443V45H133.133V43ZM129.443 43C127.298 43 125.875 42.5043 124.991 41.6895L123.636 43.1605C125.031 44.4457 127.029 45 129.443 45V43ZM124.991 41.6895C124.146 40.9115 123.603 39.522 123.603 37.25H121.603C121.603 39.778 122.2 41.8385 123.636 43.1605L124.991 41.6895ZM123.603 37.25V22.715H121.603V37.25H123.603ZM122.603 21.715H119.408V23.715H122.603V21.715ZM120.408 22.715V19.34H118.408V22.715H120.408ZM119.408 20.34H122.603V18.34H119.408V20.34ZM123.603 19.34V13.13H121.603V19.34H123.603ZM122.603 14.13H126.698V12.13H122.603V14.13ZM125.698 13.13V19.34H127.698V13.13H125.698ZM126.698 20.34H133.133V18.34H126.698V20.34ZM132.133 19.34V22.715H134.133V19.34H132.133ZM133.133 21.715H126.698V23.715H133.133V21.715ZM160.052 33.2V34.2H160.954L161.047 33.3029L160.052 33.2ZM140.342 33.2V32.2H139.278L139.344 33.2616L140.342 33.2ZM142.817 38.915L142.14 39.6509L142.148 39.658L142.155 39.6648L142.817 38.915ZM152.762 39.725L153.331 40.5472L153.335 40.5442L152.762 39.725ZM155.282 36.395V35.395H154.571L154.337 36.0665L155.282 36.395ZM159.692 36.395L160.655 36.6633L161.008 35.395H159.692V36.395ZM155.732 42.2L156.328 43.0029L156.336 42.9971L155.732 42.2ZM142.052 42.83L141.554 43.6974L141.56 43.7008L142.052 42.83ZM137.732 38.375L136.851 38.8491L136.855 38.8548L137.732 38.375ZM137.687 24.92L138.57 25.3892L137.687 24.92ZM141.962 20.51L142.449 21.3835L142.454 21.3808L141.962 20.51ZM154.562 20.465L154.069 21.335L154.562 20.465ZM158.702 24.695L157.82 25.1656L157.824 25.1744L157.829 25.1832L158.702 24.695ZM155.957 29.87V30.87H156.957V29.87H155.957ZM154.922 25.865L154.066 26.3828L154.073 26.3929L154.922 25.865ZM152.087 23.3L151.631 24.1898L151.644 24.1968L151.658 24.2033L152.087 23.3ZM142.862 24.38L142.194 23.6359L142.186 23.6428L142.862 24.38ZM140.387 29.87L139.391 29.7806L139.293 30.87H140.387V29.87ZM159.187 30.725C159.187 31.4668 159.144 32.2573 159.057 33.0971L161.047 33.3029C161.14 32.4027 161.187 31.5432 161.187 30.725H159.187ZM160.052 32.2H140.342V34.2H160.052V32.2ZM139.344 33.2616C139.506 35.896 140.414 38.0629 142.14 39.6509L143.494 38.1791C142.22 37.0071 141.477 35.364 141.34 33.1384L139.344 33.2616ZM142.155 39.6648C143.879 41.186 145.964 41.94 148.352 41.94V39.94C146.42 39.94 144.815 39.344 143.479 38.1652L142.155 39.6648ZM148.352 41.94C150.275 41.94 151.957 41.4985 153.331 40.5472L152.193 38.9028C151.227 39.5715 149.968 39.94 148.352 39.94V41.94ZM153.335 40.5442C154.707 39.584 155.677 38.3026 156.226 36.7235L154.337 36.0665C153.927 37.2474 153.217 38.186 152.188 38.9058L153.335 40.5442ZM155.282 37.395H159.692V35.395H155.282V37.395ZM158.729 36.1267C158.128 38.2837 156.935 40.0337 155.128 41.4029L156.336 42.9971C158.488 41.3663 159.936 39.2463 160.655 36.6633L158.729 36.1267ZM155.136 41.3971C153.359 42.7159 151.12 43.405 148.352 43.405V45.405C151.464 45.405 154.144 44.6241 156.328 43.0029L155.136 41.3971ZM148.352 43.405C146.167 43.405 144.239 42.9166 142.544 41.9592L141.56 43.7008C143.584 44.8434 145.857 45.405 148.352 45.405V43.405ZM142.55 41.9626C140.886 41.0079 139.574 39.6598 138.609 37.8952L136.855 38.8548C137.99 40.9302 139.558 42.5521 141.554 43.6974L142.55 41.9626ZM138.612 37.9009C137.652 36.1173 137.157 34.0348 137.157 31.625H135.157C135.157 34.3152 135.712 36.7327 136.851 38.8491L138.612 37.9009ZM137.157 31.625C137.157 29.2103 137.639 27.1416 138.57 25.3892L136.804 24.4508C135.695 26.5384 135.157 28.9397 135.157 31.625H137.157ZM138.57 25.3892C139.503 23.6325 140.794 22.306 142.449 21.3835L141.475 19.6365C139.47 20.754 137.911 22.3675 136.804 24.4508L138.57 25.3892ZM142.454 21.3808C144.146 20.4256 146.102 19.935 148.352 19.935V17.935C145.801 17.935 143.498 18.4944 141.47 19.6392L142.454 21.3808ZM148.352 19.935C150.542 19.935 152.438 20.4109 154.069 21.335L155.055 19.595C153.086 18.4791 150.842 17.935 148.352 17.935V19.935ZM154.069 21.335C155.706 22.2629 156.95 23.5355 157.82 25.1656L159.584 24.2244C158.534 22.2545 157.018 20.7071 155.055 19.595L154.069 21.335ZM157.829 25.1832C158.727 26.7881 159.187 28.6268 159.187 30.725H161.187C161.187 28.3232 160.657 26.1419 159.575 24.2068L157.829 25.1832ZM156.957 29.87C156.957 28.1599 156.577 26.6339 155.771 25.3371L154.073 26.3929C154.646 27.3161 154.957 28.4601 154.957 29.87H156.957ZM155.777 25.3472C154.986 24.0403 153.893 23.051 152.516 22.3967L151.658 24.2033C152.68 24.689 153.477 25.4097 154.066 26.3828L155.777 25.3472ZM152.543 22.4102C151.219 21.7311 149.755 21.4 148.172 21.4V23.4C149.469 23.4 150.615 23.6689 151.631 24.1898L152.543 22.4102ZM148.172 21.4C145.868 21.4 143.857 22.1427 142.194 23.636L143.53 25.124C144.807 23.9773 146.336 23.4 148.172 23.4V21.4ZM142.186 23.6428C140.527 25.1641 139.618 27.2454 139.391 29.7806L141.383 29.9594C141.575 27.8146 142.317 26.2359 143.538 25.1172L142.186 23.6428ZM140.387 30.87H155.957V28.87H140.387V30.87ZM169.279 23.345H168.279L170.17 23.7998L169.279 23.345ZM172.339 20.06L171.839 19.1941L171.83 19.1991L172.339 20.06ZM177.244 18.89H178.244V17.89H177.244V18.89ZM177.244 23.12V24.12H178.244V23.12H177.244ZM169.279 44V45H170.279V44H169.279ZM165.184 44H164.184V45H165.184V44ZM165.184 19.34V18.34H164.184V19.34H165.184ZM169.279 19.34H170.279V18.34H169.279V19.34ZM170.17 23.7998C170.807 22.5528 171.697 21.6012 172.848 20.9209L171.83 19.1991C170.342 20.0788 169.192 21.3172 168.389 22.8902L170.17 23.7998ZM172.839 20.9259C174.006 20.2519 175.459 19.89 177.244 19.89V17.89C175.189 17.89 173.373 18.3081 171.839 19.1941L172.839 20.9259ZM176.244 18.89V23.12H178.244V18.89H176.244ZM177.244 22.12H176.164V24.12H177.244V22.12ZM176.164 22.12C173.693 22.12 171.662 22.794 170.265 24.3098C168.882 25.8101 168.279 27.9652 168.279 30.59H170.279C170.279 28.2348 170.824 26.6549 171.736 25.6652C172.634 24.691 174.045 24.12 176.164 24.12V22.12ZM168.279 30.59V44H170.279V30.59H168.279ZM169.279 43H165.184V45H169.279V43ZM166.184 44V19.34H164.184V44H166.184ZM165.184 20.34H169.279V18.34H165.184V20.34ZM168.279 19.34V23.345H170.279V19.34H168.279ZM22.005 93.025L22.9455 92.6852L22.707 92.025H22.005V93.025ZM8.325 93.025V92.025H7.62303L7.3845 92.6852L8.325 93.025ZM5.805 100V101H6.50697L6.7455 100.34L5.805 100ZM1.485 100L0.545207 99.6583L0.0573 101H1.485V100ZM12.825 68.815V67.815H12.1246L11.8852 68.4733L12.825 68.815ZM17.55 68.815L18.4902 68.4745L18.2514 67.815H17.55V68.815ZM28.845 100V101H30.2708L29.7852 99.6595L28.845 100ZM24.525 100L23.5845 100.34L23.823 101H24.525V100ZM20.835 89.695V90.695H22.2551L21.7765 89.358L20.835 89.695ZM15.165 73.855L16.1065 73.518L15.165 70.8878L14.2235 73.518L15.165 73.855ZM9.495 89.695L8.5535 89.358L8.07491 90.695H9.495V89.695ZM22.005 92.025H8.325V94.025H22.005V92.025ZM7.3845 92.6852L4.8645 99.6602L6.7455 100.34L9.2655 93.3648L7.3845 92.6852ZM5.805 99H1.485V101H5.805V99ZM2.42479 100.342L13.7648 69.1567L11.8852 68.4733L0.545207 99.6583L2.42479 100.342ZM12.825 69.815H17.55V67.815H12.825V69.815ZM16.6098 69.1555L27.9048 100.341L29.7852 99.6595L18.4902 68.4745L16.6098 69.1555ZM28.845 99H24.525V101H28.845V99ZM25.4655 99.6602L22.9455 92.6852L21.0645 93.3648L23.5845 100.34L25.4655 99.6602ZM21.7765 89.358L16.1065 73.518L14.2235 74.192L19.8935 90.032L21.7765 89.358ZM14.2235 73.518L8.5535 89.358L10.4365 90.032L16.1065 74.192L14.2235 73.518ZM9.495 90.695H20.835V88.695H9.495V90.695ZM33.3793 80.965L34.2593 81.4399L34.2624 81.4342L33.3793 80.965ZM37.6093 76.51L37.1116 75.6426L37.1054 75.6462L37.6093 76.51ZM51.3343 77.14L50.7323 77.9385L50.7382 77.9429L51.3343 77.14ZM55.2493 83.26V84.26H56.5194L56.2213 83.0254L55.2493 83.26ZM50.8393 83.26L49.8763 83.5296L50.0808 84.26H50.8393V83.26ZM48.3643 79.705L47.7773 80.5147L47.7868 80.5214L48.3643 79.705ZM38.1943 80.83L38.9355 81.5013L38.9417 81.4944L38.1943 80.83ZM38.1943 94.51L38.9417 93.8456L38.1943 94.51ZM48.3643 95.68L48.9377 96.4992L48.3643 95.68ZM50.8393 92.08V91.08H50.087L49.8784 91.8028L50.8393 92.08ZM55.2493 92.08L56.2166 92.3334L56.5449 91.08H55.2493V92.08ZM51.2893 98.155L51.8932 98.9521L51.9007 98.9463L51.2893 98.155ZM37.6093 98.83L37.1054 99.6938L37.1116 99.6974L37.6093 98.83ZM33.3793 94.375L32.4962 94.8442L33.3793 94.375ZM32.8493 87.625C32.8493 85.2098 33.3316 83.159 34.2593 81.4399L32.4992 80.4901C31.387 82.551 30.8493 84.9402 30.8493 87.625H32.8493ZM34.2624 81.4342C35.1991 79.6709 36.4809 78.3259 38.1131 77.3738L37.1054 75.6462C35.1376 76.7941 33.5994 78.4191 32.4962 80.4958L34.2624 81.4342ZM38.1069 77.3774C39.7694 76.4235 41.6794 75.935 43.8643 75.935V73.935C41.3692 73.935 39.1091 74.4965 37.1116 75.6426L38.1069 77.3774ZM43.8643 75.935C46.7303 75.935 48.9939 76.6281 50.7323 77.9385L51.9362 76.3415C49.7746 74.7119 47.0582 73.935 43.8643 73.935V75.935ZM50.7382 77.9429C52.513 79.2606 53.6969 81.0906 54.2772 83.4946L56.2213 83.0254C55.5416 80.2094 54.1155 77.9594 51.9304 76.3371L50.7382 77.9429ZM55.2493 82.26H50.8393V84.26H55.2493V82.26ZM51.8022 82.9904C51.3226 81.2774 50.366 79.896 48.9417 78.8886L47.7868 80.5214C48.8226 81.254 49.5159 82.2426 49.8763 83.5296L51.8022 82.9904ZM48.9512 78.8954C47.5466 77.8771 45.829 77.4 43.8643 77.4V79.4C45.4996 79.4 46.7819 79.7929 47.7773 80.5146L48.9512 78.8954ZM43.8643 77.4C41.2642 77.4 39.093 78.3137 37.4469 80.1656L38.9417 81.4944C40.1755 80.1063 41.7843 79.4 43.8643 79.4V77.4ZM37.4531 80.1587C35.7933 81.9914 35.0343 84.5295 35.0343 87.625H37.0343C37.0343 84.8404 37.7152 82.8486 38.9355 81.5013L37.4531 80.1587ZM35.0343 87.625C35.0343 90.7487 35.7923 93.313 37.4469 95.1744L38.9417 93.8456C37.7162 92.467 37.0343 90.4413 37.0343 87.625H35.0343ZM37.4469 95.1744C39.093 97.0263 41.2642 97.94 43.8643 97.94V95.94C41.7843 95.94 40.1755 95.2337 38.9417 93.8456L37.4469 95.1744ZM43.8643 97.94C45.8219 97.94 47.5345 97.4815 48.9377 96.4992L47.7908 94.8608C46.794 95.5585 45.5066 95.94 43.8643 95.94V97.94ZM48.9377 96.4992C50.3455 95.5138 51.294 94.1115 51.8001 92.3572L49.8784 91.8028C49.4845 93.1685 48.783 94.1662 47.7908 94.8608L48.9377 96.4992ZM50.8393 93.08H55.2493V91.08H50.8393V93.08ZM54.2819 91.8266C53.6754 94.1424 52.4755 95.9746 50.6778 97.3637L51.9007 98.9463C54.0631 97.2754 55.5031 95.0576 56.2166 92.3334L54.2819 91.8266ZM50.6854 97.3579C48.9113 98.702 46.6602 99.405 43.8643 99.405V101.405C47.0083 101.405 49.7073 100.608 51.8931 98.9521L50.6854 97.3579ZM43.8643 99.405C41.6794 99.405 39.7694 98.9165 38.1069 97.9626L37.1116 99.6974C39.1091 100.843 41.3692 101.405 43.8643 101.405V99.405ZM38.1131 97.9662C36.4809 97.0141 35.1991 95.6691 34.2624 93.9058L32.4962 94.8442C33.5994 96.9209 35.1376 98.5459 37.1054 99.6938L38.1131 97.9662ZM34.2624 93.9058C33.3323 92.155 32.8493 90.0719 32.8493 87.625H30.8493C30.8493 90.3381 31.3863 92.755 32.4962 94.8442L34.2624 93.9058ZM60.3052 80.965L61.1853 81.4399L61.1884 81.4342L60.3052 80.965ZM64.5352 76.51L64.0376 75.6426L64.0314 75.6462L64.5352 76.51ZM78.2602 77.14L77.6583 77.9385L77.6641 77.9429L78.2602 77.14ZM82.1752 83.26V84.26H83.4454L83.1473 83.0254L82.1752 83.26ZM77.7653 83.26L76.8023 83.5296L77.0068 84.26H77.7653V83.26ZM75.2903 79.705L74.7032 80.5147L74.7128 80.5214L75.2903 79.705ZM65.1202 80.83L65.8615 81.5013L65.8677 81.4944L65.1202 80.83ZM65.1202 94.51L65.8677 93.8456L65.1202 94.51ZM75.2903 95.68L75.8637 96.4992L75.2903 95.68ZM77.7653 92.08V91.08H77.0129L76.8044 91.8028L77.7653 92.08ZM82.1752 92.08L83.1426 92.3334L83.4709 91.08H82.1752V92.08ZM78.2152 98.155L78.8191 98.9521L78.8267 98.9463L78.2152 98.155ZM64.5352 98.83L64.0314 99.6938L64.0376 99.6974L64.5352 98.83ZM60.3052 94.375L59.4221 94.8442L60.3052 94.375ZM59.7752 87.625C59.7752 85.2098 60.2575 83.159 61.1853 81.4399L59.4252 80.4901C58.313 82.551 57.7752 84.9402 57.7752 87.625H59.7752ZM61.1884 81.4342C62.1251 79.6709 63.4069 78.3259 65.0391 77.3738L64.0314 75.6462C62.0636 76.7941 60.5254 78.4191 59.4221 80.4958L61.1884 81.4342ZM65.0329 77.3774C66.6954 76.4235 68.6054 75.935 70.7902 75.935V73.935C68.2951 73.935 66.0351 74.4965 64.0376 75.6426L65.0329 77.3774ZM70.7902 75.935C73.6563 75.935 75.9199 76.6281 77.6583 77.9385L78.8622 76.3415C76.7006 74.7119 73.9842 73.935 70.7902 73.935V75.935ZM77.6641 77.9429C79.439 79.2606 80.6229 81.0906 81.2032 83.4946L83.1473 83.0254C82.4676 80.2094 81.0415 77.9594 78.8563 76.3371L77.6641 77.9429ZM82.1752 82.26H77.7653V84.26H82.1752V82.26ZM78.7282 82.9904C78.2486 81.2774 77.292 79.896 75.8677 78.8886L74.7128 80.5214C75.7485 81.254 76.4419 82.2426 76.8023 83.5296L78.7282 82.9904ZM75.8772 78.8954C74.4726 77.8771 72.755 77.4 70.7902 77.4V79.4C72.4255 79.4 73.7079 79.7929 74.7033 80.5146L75.8772 78.8954ZM70.7902 77.4C68.1902 77.4 66.019 78.3137 64.3728 80.1656L65.8677 81.4944C67.1015 80.1063 68.7103 79.4 70.7902 79.4V77.4ZM64.379 80.1587C62.7193 81.9914 61.9602 84.5295 61.9602 87.625H63.9602C63.9602 84.8404 64.6412 82.8486 65.8615 81.5013L64.379 80.1587ZM61.9602 87.625C61.9602 90.7487 62.7183 93.313 64.3728 95.1744L65.8677 93.8456C64.6422 92.467 63.9602 90.4413 63.9602 87.625H61.9602ZM64.3728 95.1744C66.019 97.0263 68.1902 97.94 70.7902 97.94V95.94C68.7103 95.94 67.1015 95.2337 65.8677 93.8456L64.3728 95.1744ZM70.7902 97.94C72.7479 97.94 74.4605 97.4815 75.8637 96.4992L74.7168 94.8608C73.72 95.5585 72.4326 95.94 70.7902 95.94V97.94ZM75.8637 96.4992C77.2715 95.5138 78.22 94.1115 78.7261 92.3572L76.8044 91.8028C76.4105 93.1685 75.709 94.1662 74.7168 94.8608L75.8637 96.4992ZM77.7653 93.08H82.1752V91.08H77.7653V93.08ZM81.2079 91.8266C80.6014 94.1424 79.4014 95.9746 77.6038 97.3637L78.8267 98.9463C80.9891 97.2754 82.4291 95.0576 83.1426 92.3334L81.2079 91.8266ZM77.6114 97.3579C75.8372 98.702 73.5862 99.405 70.7902 99.405V101.405C73.9343 101.405 76.6333 100.608 78.8191 98.9521L77.6114 97.3579ZM70.7902 99.405C68.6054 99.405 66.6954 98.9165 65.0329 97.9626L64.0376 99.6974C66.0351 100.843 68.2951 101.405 70.7902 101.405V99.405ZM65.0391 97.9662C63.4069 97.0141 62.1251 95.6691 61.1884 93.9058L59.4221 94.8442C60.5254 96.9209 62.0636 98.5459 64.0314 99.6938L65.0391 97.9662ZM61.1884 93.9058C60.2582 92.155 59.7752 90.0719 59.7752 87.625H57.7752C57.7752 90.3381 58.3123 92.755 59.4221 94.8442L61.1884 93.9058ZM91.6862 98.83L91.1946 99.7008L91.2006 99.7042L91.6862 98.83ZM87.2762 94.375L86.3958 94.8491L86.4001 94.8572L86.4047 94.8653L87.2762 94.375ZM87.3212 80.965L86.4522 80.4703L86.4497 80.4747L87.3212 80.965ZM91.8212 76.51L92.2962 77.3901L92.3069 77.3842L91.8212 76.51ZM104.511 76.51L104.026 77.3842L104.036 77.39L104.511 76.51ZM108.966 80.92L108.095 81.4103L108.101 81.4205L108.966 80.92ZM108.921 94.375L108.058 93.8703L108.056 93.8745L108.921 94.375ZM104.376 98.83L104.856 99.7074L104.376 98.83ZM105.231 92.665L104.369 92.1588L104.365 92.1658L104.361 92.1729L105.231 92.665ZM102.216 79.525L101.736 80.4021L101.744 80.4065L101.752 80.4108L102.216 79.525ZM93.9812 79.525L94.4541 80.4062L94.4615 80.4021L93.9812 79.525ZM91.0112 82.585L91.8899 83.0625L91.0112 82.585ZM90.9662 92.71L90.0797 93.1726L90.0836 93.1801L90.0876 93.1875L90.9662 92.71ZM93.9362 95.815L93.447 96.6871L93.4552 96.6917L93.4634 96.6962L93.9362 95.815ZM97.9862 99.405C95.8342 99.405 93.9032 98.9177 92.1719 97.9558L91.2006 99.7042C93.2493 100.842 95.5183 101.405 97.9862 101.405V99.405ZM92.1778 97.9592C90.482 97.0019 89.1412 95.6508 88.1478 93.8847L86.4047 94.8653C87.5712 96.9392 89.1704 98.5581 91.1946 99.7008L92.1778 97.9592ZM88.1567 93.9009C87.1963 92.1173 86.7012 90.0348 86.7012 87.625H84.7012C84.7012 90.3152 85.2561 92.7327 86.3958 94.8491L88.1567 93.9009ZM86.7012 87.625C86.7012 85.2517 87.2085 83.2052 88.1928 81.4553L86.4497 80.4747C85.274 82.5648 84.7012 84.9583 84.7012 87.625H86.7012ZM88.1903 81.4597C89.212 79.6649 90.5786 78.3169 92.2962 77.39L91.3463 75.63C89.2838 76.743 87.6505 78.3651 86.4522 80.4703L88.1903 81.4597ZM92.3069 77.3842C94.0362 76.4234 95.9818 75.935 98.1662 75.935V73.935C95.6707 73.935 93.3862 74.4966 91.3356 75.6358L92.3069 77.3842ZM98.1662 75.935C100.351 75.935 102.296 76.4234 104.026 77.3842L104.997 75.6358C102.946 74.4966 100.662 73.935 98.1662 73.935V75.935ZM104.036 77.39C105.755 78.3178 107.105 79.6506 108.095 81.4103L109.838 80.4297C108.668 78.3494 107.047 76.7422 104.986 75.63L104.036 77.39ZM108.101 81.4205C109.11 83.1668 109.631 85.224 109.631 87.625H111.631C111.631 84.926 111.042 82.5132 109.832 80.4195L108.101 81.4205ZM109.631 87.625C109.631 90.021 109.097 92.0924 108.058 93.8703L109.785 94.8797C111.025 92.7576 111.631 90.329 111.631 87.625H109.631ZM108.056 93.8745C107.036 95.6381 105.653 96.9918 103.896 97.9526L104.856 99.7074C106.939 98.5682 108.587 96.9519 109.787 94.8755L108.056 93.8745ZM103.896 97.9526C102.134 98.9166 100.171 99.405 97.9862 99.405V101.405C100.482 101.405 102.779 100.843 104.856 99.7074L103.896 97.9526ZM97.9862 97.805C99.62 97.805 101.162 97.4198 102.598 96.6518L101.655 94.8882C100.51 95.5002 99.2925 95.805 97.9862 95.805V97.805ZM102.598 96.6518C104.069 95.8649 105.237 94.6878 106.102 93.1571L104.361 92.1729C103.666 93.4022 102.763 94.2951 101.655 94.8882L102.598 96.6518ZM106.094 93.1712C107.013 91.6052 107.446 89.741 107.446 87.625H105.446C105.446 89.469 105.07 90.9648 104.369 92.1588L106.094 93.1712ZM107.446 87.625C107.446 85.5149 107.03 83.6561 106.147 82.0929L104.406 83.0771C105.082 84.2739 105.446 85.7751 105.446 87.625H107.446ZM106.147 82.0929C105.283 80.5651 104.13 79.3986 102.68 78.6392L101.752 80.4108C102.822 80.9714 103.709 81.8449 104.406 83.0771L106.147 82.0929ZM102.697 78.6479C101.286 77.8753 99.755 77.49 98.1212 77.49V79.49C99.4274 79.49 100.627 79.7947 101.736 80.4021L102.697 78.6479ZM98.1212 77.49C96.461 77.49 94.9148 77.8736 93.5009 78.6479L94.4615 80.4021C95.5677 79.7963 96.7814 79.49 98.1212 79.49V77.49ZM93.5084 78.6438C92.0858 79.4072 90.9636 80.5784 90.1326 82.1075L91.8899 83.0625C92.5588 81.8316 93.4167 80.9628 94.4541 80.4062L93.5084 78.6438ZM90.1326 82.1075C89.2848 83.6674 88.8862 85.5208 88.8862 87.625H90.8862C90.8862 85.7692 91.2376 84.2626 91.8899 83.0625L90.1326 82.1075ZM88.8862 87.625C88.8862 89.7506 89.2666 91.6143 90.0797 93.1726L91.8528 92.2474C91.2259 91.0458 90.8862 89.5194 90.8862 87.625H88.8862ZM90.0876 93.1875C90.9171 94.7137 92.0343 95.8947 93.447 96.6871L94.4255 94.9429C93.3781 94.3553 92.5154 93.4663 91.8449 92.2325L90.0876 93.1875ZM93.4634 96.6962C94.8466 97.4383 96.3603 97.805 97.9862 97.805V95.805C96.6722 95.805 95.4859 95.5117 94.409 94.9338L93.4634 96.6962ZM137.477 75.34H138.477V74.34H137.477V75.34ZM137.477 100V101H138.477V100H137.477ZM133.382 100H132.382V101H133.382V100ZM133.382 96.355H134.382V92.8398L132.532 95.8286L133.382 96.355ZM130.097 99.325L130.545 100.219L130.552 100.216L130.097 99.325ZM120.332 99.19L119.865 100.074L119.871 100.077L119.878 100.081L120.332 99.19ZM116.687 95.59L115.81 96.07L115.814 96.0763L115.817 96.0826L116.687 95.59ZM115.382 75.34V74.34H114.382V75.34H115.382ZM119.432 75.34H120.432V74.34H119.432V75.34ZM121.277 94.87L120.546 95.5518L120.554 95.5601L121.277 94.87ZM131.492 94.78L130.761 94.0977L131.492 94.78ZM133.382 75.34V74.34H132.382V75.34H133.382ZM136.477 75.34V100H138.477V75.34H136.477ZM137.477 99H133.382V101H137.477V99ZM134.382 100V96.355H132.382V100H134.382ZM132.532 95.8286C131.855 96.9227 130.902 97.7915 129.643 98.4344L130.552 100.216C132.113 99.4185 133.35 98.3073 134.233 96.8814L132.532 95.8286ZM129.65 98.4306C128.421 99.0451 127.046 99.36 125.507 99.36V101.36C127.329 101.36 129.014 100.985 130.545 100.219L129.65 98.4306ZM125.507 99.36C123.726 99.36 122.16 98.9993 120.787 98.2991L119.878 100.081C121.565 100.941 123.448 101.36 125.507 101.36V99.36ZM120.8 98.3062C119.449 97.5906 118.369 96.5309 117.558 95.0974L115.817 96.0826C116.806 97.8291 118.156 99.1694 119.865 100.074L120.8 98.3062ZM117.565 95.11C116.793 93.7004 116.382 91.9397 116.382 89.785H114.382C114.382 92.1903 114.841 94.2996 115.81 96.07L117.565 95.11ZM116.382 89.785V75.34H114.382V89.785H116.382ZM115.382 76.34H119.432V74.34H115.382V76.34ZM118.432 75.34V89.245H120.432V75.34H118.432ZM118.432 89.245C118.432 91.8386 119.091 93.9902 120.546 95.5517L122.009 94.1883C121.004 93.1098 120.432 91.5114 120.432 89.245H118.432ZM120.554 95.5601C122.009 97.0861 123.972 97.805 126.317 97.805V95.805C124.403 95.805 123.006 95.2339 122.001 94.1799L120.554 95.5601ZM126.317 97.805C128.729 97.805 130.739 97.0525 132.223 95.4623L130.761 94.0977C129.726 95.2075 128.286 95.805 126.317 95.805V97.805ZM132.223 95.4623C133.715 93.8645 134.382 91.6172 134.382 88.885H132.382C132.382 91.3128 131.79 92.9955 130.761 94.0977L132.223 95.4623ZM134.382 88.885V75.34H132.382V88.885H134.382ZM133.382 76.34H137.477V74.34H133.382V76.34ZM163.289 77.635L162.587 78.3479L162.593 78.3536L163.289 77.635ZM166.079 100V101H167.079V100H166.079ZM162.029 100H161.029V101H162.029V100ZM160.184 80.425L159.452 81.1068L159.46 81.1151L160.184 80.425ZM149.969 80.47L149.246 79.7791L149.238 79.7877L149.969 80.47ZM148.079 100V101H149.079V100H148.079ZM143.984 100H142.984V101H143.984V100ZM143.984 75.34V74.34H142.984V75.34H143.984ZM148.079 75.34H149.079V74.34H148.079V75.34ZM148.079 78.85H147.079V82.2548L148.92 79.3908L148.079 78.85ZM151.364 75.925L150.924 75.0267L150.916 75.0306L151.364 75.925ZM155.999 75.89C158.779 75.89 160.943 76.7297 162.587 78.3478L163.99 76.9222C161.915 74.8803 159.219 73.89 155.999 73.89V75.89ZM162.593 78.3536C164.202 79.9103 165.079 82.2252 165.079 85.465H167.079C167.079 81.8648 166.095 78.9597 163.984 76.9164L162.593 78.3536ZM165.079 85.465V100H167.079V85.465H165.079ZM166.079 99H162.029V101H166.079V99ZM163.029 100V86.05H161.029V100H163.029ZM163.029 86.05C163.029 83.432 162.373 81.2719 160.907 79.7349L159.46 81.1151C160.454 82.1581 161.029 83.748 161.029 86.05H163.029ZM160.915 79.7433C159.462 78.1836 157.497 77.445 155.144 77.445V79.445C157.051 79.445 158.445 80.0264 159.452 81.1067L160.915 79.7433ZM155.144 77.445C152.757 77.445 150.754 78.2003 149.246 79.7791L150.692 81.1609C151.763 80.0397 153.21 79.445 155.144 79.445V77.445ZM149.238 79.7877C147.746 81.3855 147.079 83.6328 147.079 86.365H149.079C149.079 83.9372 149.671 82.2545 150.7 81.1523L149.238 79.7877ZM147.079 86.365V100H149.079V86.365H147.079ZM148.079 99H143.984V101H148.079V99ZM144.984 100V75.34H142.984V100H144.984ZM143.984 76.34H148.079V74.34H143.984V76.34ZM147.079 75.34V78.85H149.079V75.34H147.079ZM148.92 79.3908C149.63 78.2866 150.586 77.4316 151.811 76.8194L150.916 75.0306C149.381 75.7984 148.148 76.8934 147.237 78.3092L148.92 79.3908ZM151.803 76.8232C153.067 76.2048 154.46 75.89 155.999 75.89V73.89C154.177 73.89 152.48 74.2652 150.924 75.0268L151.803 76.8232ZM177.355 78.715V77.715H176.355V78.715H177.355ZM178.12 95.815L177.413 96.5221L177.423 96.5328L177.434 96.5432L178.12 95.815ZM183.79 96.535H184.79V95.535H183.79V96.535ZM183.79 100V101H184.79V100H183.79ZM173.26 78.715H174.26V77.715H173.26V78.715ZM170.065 78.715H169.065V79.715H170.065V78.715ZM170.065 75.34V74.34H169.065V75.34H170.065ZM173.26 75.34V76.34H174.26V75.34H173.26ZM173.26 69.13V68.13H172.26V69.13H173.26ZM177.355 69.13H178.355V68.13H177.355V69.13ZM177.355 75.34H176.355V76.34H177.355V75.34ZM183.79 75.34H184.79V74.34H183.79V75.34ZM183.79 78.715V79.715H184.79V78.715H183.79ZM176.355 78.715V93.25H178.355V78.715H176.355ZM176.355 93.25C176.355 94.5486 176.623 95.7328 177.413 96.5221L178.827 95.1079C178.596 94.8772 178.355 94.3514 178.355 93.25H176.355ZM177.434 96.5432C178.231 97.2926 179.444 97.535 180.775 97.535V95.535C179.585 95.535 179.029 95.2974 178.805 95.0868L177.434 96.5432ZM180.775 97.535H183.79V95.535H180.775V97.535ZM182.79 96.535V100H184.79V96.535H182.79ZM183.79 99H180.1V101H183.79V99ZM180.1 99C177.954 99 176.532 98.5043 175.647 97.6895L174.292 99.1605C175.688 100.446 177.685 101 180.1 101V99ZM175.647 97.6895C174.803 96.9115 174.26 95.522 174.26 93.25H172.26C172.26 95.778 172.857 97.8385 174.292 99.1605L175.647 97.6895ZM174.26 93.25V78.715H172.26V93.25H174.26ZM173.26 77.715H170.065V79.715H173.26V77.715ZM171.065 78.715V75.34H169.065V78.715H171.065ZM170.065 76.34H173.26V74.34H170.065V76.34ZM174.26 75.34V69.13H172.26V75.34H174.26ZM173.26 70.13H177.355V68.13H173.26V70.13ZM176.355 69.13V75.34H178.355V69.13H176.355ZM177.355 76.34H183.79V74.34H177.355V76.34ZM182.79 75.34V78.715H184.79V75.34H182.79ZM183.79 77.715H177.355V79.715H183.79V77.715Z" fill="#FF6780"/>
<circle cx="261" cy="6" r="6" fill="#FF6780"/>
<circle cx="261" cy="54" r="6" fill="#FF6780"/>
<circle cx="261" cy="78" r="6" fill="#FF6780"/>
<circle cx="281" cy="6" r="6" fill="#FF6780"/>
<circle cx="281" cy="30" r="6" fill="#FF6780"/>
<circle cx="281" cy="54" r="6" fill="#FF6780"/>
<circle cx="281" cy="78" r="6" fill="#FF6780"/>
<circle cx="261" cy="30" r="6" fill="#FF6780"/>
<circle cx="303" cy="6" r="6" fill="#FF6780"/>
<circle cx="303" cy="54" r="6" fill="#FF6780"/>
<circle cx="303" cy="78" r="6" fill="#FF6780"/>
<circle cx="323" cy="6" r="6" fill="#FF6780"/>
<circle cx="323" cy="30" r="6" fill="#FF6780"/>
<circle cx="323" cy="54" r="6" fill="#FF6780"/>
<circle cx="323" cy="78" r="6" fill="#FF6780"/>
<circle cx="303" cy="30" r="6" fill="#FF6780"/>
</svg>
