<svg width="375" height="274" viewBox="0 0 375 274" fill="none" xmlns="http://www.w3.org/2000/svg">
<g filter="url(#filter0_d_59_198)">
<path d="M0.268463 60C0.268463 26.8629 27.1314 0 60.2685 0H276C309.137 0 336 26.8629 336 60V206C336 239.137 309.137 266 276 266H60.2685C27.1314 266 0.268463 239.137 0.268463 206V60Z" fill="#FF6780"/>
<rect x="0.268463" y="173.439" width="132.705" height="92.5608" fill="#FF6780"/>
<rect x="-2" width="68.0537" height="47.6284" fill="#FF6780"/>
<rect x="267.946" width="68.0537" height="47.6284" fill="#FF6780"/>
</g>
<path d="M70.65 83.15L60.55 118H55.45L47.35 89.95L38.95 118L33.9 118.05L24.15 83.15H29L36.6 112.7L45 83.15H50.1L58.1 112.6L65.75 83.15H70.65ZM100.221 103.25C100.221 104.117 100.171 105.033 100.071 106H78.1713C78.338 108.7 79.2546 110.817 80.9213 112.35C82.6213 113.85 84.6713 114.6 87.0713 114.6C89.038 114.6 90.6713 114.15 91.9713 113.25C93.3046 112.317 94.238 111.083 94.7713 109.55H99.6713C98.938 112.183 97.4713 114.333 95.2713 116C93.0713 117.633 90.338 118.45 87.0713 118.45C84.4713 118.45 82.138 117.867 80.0713 116.7C78.038 115.533 76.438 113.883 75.2713 111.75C74.1046 109.583 73.5213 107.083 73.5213 104.25C73.5213 101.417 74.088 98.9333 75.2213 96.8C76.3546 94.6667 77.938 93.0333 79.9713 91.9C82.038 90.7333 84.4046 90.15 87.0713 90.15C89.6713 90.15 91.9713 90.7167 93.9713 91.85C95.9713 92.9833 97.5046 94.55 98.5713 96.55C99.6713 98.5167 100.221 100.75 100.221 103.25ZM95.5213 102.3C95.5213 100.567 95.138 99.0833 94.3713 97.85C93.6046 96.5833 92.5546 95.6333 91.2213 95C89.9213 94.3333 88.4713 94 86.8713 94C84.5713 94 82.6046 94.7333 80.9713 96.2C79.3713 97.6667 78.4546 99.7 78.2213 102.3H95.5213ZM110.369 81V118H105.819V81H110.369ZM116.016 104.25C116.016 101.417 116.583 98.95 117.716 96.85C118.849 94.7167 120.416 93.0667 122.416 91.9C124.449 90.7333 126.766 90.15 129.366 90.15C132.733 90.15 135.499 90.9667 137.666 92.6C139.866 94.2333 141.316 96.5 142.016 99.4H137.116C136.649 97.7333 135.733 96.4167 134.366 95.45C133.033 94.4833 131.366 94 129.366 94C126.766 94 124.666 94.9 123.066 96.7C121.466 98.4667 120.666 100.983 120.666 104.25C120.666 107.55 121.466 110.1 123.066 111.9C124.666 113.7 126.766 114.6 129.366 114.6C131.366 114.6 133.033 114.133 134.366 113.2C135.699 112.267 136.616 110.933 137.116 109.2H142.016C141.283 112 139.816 114.25 137.616 115.95C135.416 117.617 132.666 118.45 129.366 118.45C126.766 118.45 124.449 117.867 122.416 116.7C120.416 115.533 118.849 113.883 117.716 111.75C116.583 109.617 116.016 107.117 116.016 104.25ZM159.629 118.45C157.062 118.45 154.729 117.867 152.629 116.7C150.562 115.533 148.929 113.883 147.729 111.75C146.562 109.583 145.979 107.083 145.979 104.25C145.979 101.45 146.579 98.9833 147.779 96.85C149.012 94.6833 150.679 93.0333 152.779 91.9C154.879 90.7333 157.229 90.15 159.829 90.15C162.429 90.15 164.779 90.7333 166.879 91.9C168.979 93.0333 170.629 94.6667 171.829 96.8C173.062 98.9333 173.679 101.417 173.679 104.25C173.679 107.083 173.046 109.583 171.779 111.75C170.546 113.883 168.862 115.533 166.729 116.7C164.596 117.867 162.229 118.45 159.629 118.45ZM159.629 114.45C161.262 114.45 162.796 114.067 164.229 113.3C165.662 112.533 166.812 111.383 167.679 109.85C168.579 108.317 169.029 106.45 169.029 104.25C169.029 102.05 168.596 100.183 167.729 98.65C166.862 97.1167 165.729 95.9833 164.329 95.25C162.929 94.4833 161.412 94.1 159.779 94.1C158.112 94.1 156.579 94.4833 155.179 95.25C153.812 95.9833 152.712 97.1167 151.879 98.65C151.046 100.183 150.629 102.05 150.629 104.25C150.629 106.483 151.029 108.367 151.829 109.9C152.662 111.433 153.762 112.583 155.129 113.35C156.496 114.083 157.996 114.45 159.629 114.45ZM212.203 90.1C214.337 90.1 216.237 90.55 217.903 91.45C219.57 92.3167 220.887 93.6333 221.853 95.4C222.82 97.1667 223.303 99.3167 223.303 101.85V118H218.803V102.5C218.803 99.7667 218.12 97.6833 216.753 96.25C215.42 94.7833 213.603 94.05 211.303 94.05C208.937 94.05 207.053 94.8167 205.653 96.35C204.253 97.85 203.553 100.033 203.553 102.9V118H199.053V102.5C199.053 99.7667 198.37 97.6833 197.003 96.25C195.67 94.7833 193.853 94.05 191.553 94.05C189.187 94.05 187.303 94.8167 185.903 96.35C184.503 97.85 183.803 100.033 183.803 102.9V118H179.253V90.6H183.803V94.55C184.703 93.1167 185.903 92.0167 187.403 91.25C188.937 90.4833 190.62 90.1 192.453 90.1C194.753 90.1 196.787 90.6167 198.553 91.65C200.32 92.6833 201.637 94.2 202.503 96.2C203.27 94.2667 204.537 92.7667 206.303 91.7C208.07 90.6333 210.037 90.1 212.203 90.1ZM255.359 103.25C255.359 104.117 255.309 105.033 255.209 106H233.309C233.476 108.7 234.392 110.817 236.059 112.35C237.759 113.85 239.809 114.6 242.209 114.6C244.176 114.6 245.809 114.15 247.109 113.25C248.442 112.317 249.376 111.083 249.909 109.55H254.809C254.076 112.183 252.609 114.333 250.409 116C248.209 117.633 245.476 118.45 242.209 118.45C239.609 118.45 237.276 117.867 235.209 116.7C233.176 115.533 231.576 113.883 230.409 111.75C229.242 109.583 228.659 107.083 228.659 104.25C228.659 101.417 229.226 98.9333 230.359 96.8C231.492 94.6667 233.076 93.0333 235.109 91.9C237.176 90.7333 239.542 90.15 242.209 90.15C244.809 90.15 247.109 90.7167 249.109 91.85C251.109 92.9833 252.642 94.55 253.709 96.55C254.809 98.5167 255.359 100.75 255.359 103.25ZM250.659 102.3C250.659 100.567 250.276 99.0833 249.509 97.85C248.742 96.5833 247.692 95.6333 246.359 95C245.059 94.3333 243.609 94 242.009 94C239.709 94 237.742 94.7333 236.109 96.2C234.509 97.6667 233.592 99.7 233.359 102.3H250.659ZM32.4 150.35V166.5C32.4 167.833 32.6833 168.783 33.25 169.35C33.8167 169.883 34.8 170.15 36.2 170.15H39.55V174H35.45C32.9167 174 31.0167 173.417 29.75 172.25C28.4833 171.083 27.85 169.167 27.85 166.5V150.35H24.3V146.6H27.85V139.7H32.4V146.6H39.55V150.35H32.4ZM56.6049 174.45C54.0382 174.45 51.7049 173.867 49.6049 172.7C47.5382 171.533 45.9049 169.883 44.7049 167.75C43.5382 165.583 42.9549 163.083 42.9549 160.25C42.9549 157.45 43.5549 154.983 44.7549 152.85C45.9882 150.683 47.6549 149.033 49.7549 147.9C51.8549 146.733 54.2049 146.15 56.8049 146.15C59.4049 146.15 61.7549 146.733 63.8549 147.9C65.9549 149.033 67.6049 150.667 68.8049 152.8C70.0382 154.933 70.6549 157.417 70.6549 160.25C70.6549 163.083 70.0216 165.583 68.7549 167.75C67.5216 169.883 65.8382 171.533 63.7049 172.7C61.5716 173.867 59.2049 174.45 56.6049 174.45ZM56.6049 170.45C58.2382 170.45 59.7716 170.067 61.2049 169.3C62.6382 168.533 63.7882 167.383 64.6549 165.85C65.5549 164.317 66.0049 162.45 66.0049 160.25C66.0049 158.05 65.5716 156.183 64.7049 154.65C63.8382 153.117 62.7049 151.983 61.3049 151.25C59.9049 150.483 58.3882 150.1 56.7549 150.1C55.0882 150.1 53.5549 150.483 52.1549 151.25C50.7882 151.983 49.6882 153.117 48.8549 154.65C48.0216 156.183 47.6049 158.05 47.6049 160.25C47.6049 162.483 48.0049 164.367 48.8049 165.9C49.6382 167.433 50.7382 168.583 52.1049 169.35C53.4716 170.083 54.9716 170.45 56.6049 170.45ZM118.501 138.9L106.351 162.4V174H97.8014V162.4L85.6514 138.9H95.3514L102.151 153.6L108.901 138.9H118.501ZM134.238 174.4C131.505 174.4 129.038 173.817 126.838 172.65C124.672 171.483 122.955 169.817 121.688 167.65C120.455 165.483 119.838 162.95 119.838 160.05C119.838 157.183 120.472 154.667 121.738 152.5C123.005 150.3 124.738 148.617 126.938 147.45C129.138 146.283 131.605 145.7 134.338 145.7C137.072 145.7 139.538 146.283 141.738 147.45C143.938 148.617 145.672 150.3 146.938 152.5C148.205 154.667 148.838 157.183 148.838 160.05C148.838 162.917 148.188 165.45 146.888 167.65C145.622 169.817 143.872 171.483 141.638 172.65C139.438 173.817 136.972 174.4 134.238 174.4ZM134.238 167C135.872 167 137.255 166.4 138.388 165.2C139.555 164 140.138 162.283 140.138 160.05C140.138 157.817 139.572 156.1 138.438 154.9C137.338 153.7 135.972 153.1 134.338 153.1C132.672 153.1 131.288 153.7 130.188 154.9C129.088 156.067 128.538 157.783 128.538 160.05C128.538 162.283 129.072 164 130.138 165.2C131.238 166.4 132.605 167 134.238 167ZM168.516 166.75V174H164.166C161.066 174 158.65 173.25 156.916 171.75C155.183 170.217 154.316 167.733 154.316 164.3V153.2H150.916V146.1H154.316V139.3H162.866V146.1H168.466V153.2H162.866V164.4C162.866 165.233 163.066 165.833 163.466 166.2C163.866 166.567 164.533 166.75 165.466 166.75H168.516ZM181.421 150.75C182.421 149.217 183.671 148.017 185.171 147.15C186.671 146.25 188.337 145.8 190.171 145.8V154.85H187.821C185.687 154.85 184.087 155.317 183.021 156.25C181.954 157.15 181.421 158.75 181.421 161.05V174H172.871V146.1H181.421V150.75ZM206.549 174.4C203.816 174.4 201.349 173.817 199.149 172.65C196.983 171.483 195.266 169.817 193.999 167.65C192.766 165.483 192.149 162.95 192.149 160.05C192.149 157.183 192.783 154.667 194.049 152.5C195.316 150.3 197.049 148.617 199.249 147.45C201.449 146.283 203.916 145.7 206.649 145.7C209.383 145.7 211.849 146.283 214.049 147.45C216.249 148.617 217.983 150.3 219.249 152.5C220.516 154.667 221.149 157.183 221.149 160.05C221.149 162.917 220.499 165.45 219.199 167.65C217.933 169.817 216.183 171.483 213.949 172.65C211.749 173.817 209.283 174.4 206.549 174.4ZM206.549 167C208.183 167 209.566 166.4 210.699 165.2C211.866 164 212.449 162.283 212.449 160.05C212.449 157.817 211.883 156.1 210.749 154.9C209.649 153.7 208.283 153.1 206.649 153.1C204.983 153.1 203.599 153.7 202.499 154.9C201.399 156.067 200.849 157.783 200.849 160.05C200.849 162.283 201.383 164 202.449 165.2C203.549 166.4 204.916 167 206.549 167Z" fill="white"/>
<circle cx="301" cy="30" r="6" fill="white"/>
<circle cx="301" cy="78" r="6" fill="white"/>
<circle cx="301" cy="102" r="6" fill="white"/>
<circle cx="321" cy="30" r="6" fill="white"/>
<circle cx="321" cy="54" r="6" fill="white"/>
<circle cx="321" cy="78" r="6" fill="white"/>
<circle cx="321" cy="102" r="6" fill="white"/>
<circle cx="301" cy="54" r="6" fill="white"/>
<circle cx="349" cy="30" r="6" fill="#FF6780"/>
<circle cx="349" cy="78" r="6" fill="#FF6780"/>
<circle cx="349" cy="102" r="6" fill="#FF6780"/>
<circle cx="369" cy="30" r="6" fill="#FF6780"/>
<circle cx="369" cy="54" r="6" fill="#FF6780"/>
<circle cx="369" cy="78" r="6" fill="#FF6780"/>
<circle cx="369" cy="102" r="6" fill="#FF6780"/>
<circle cx="349" cy="54" r="6" fill="#FF6780"/>
<defs>
<filter id="filter0_d_59_198" x="-6" y="0" width="346" height="274" filterUnits="userSpaceOnUse" color-interpolation-filters="sRGB">
<feFlood flood-opacity="0" result="BackgroundImageFix"/>
<feColorMatrix in="SourceAlpha" type="matrix" values="0 0 0 0 0 0 0 0 0 0 0 0 0 0 0 0 0 0 127 0" result="hardAlpha"/>
<feOffset dy="4"/>
<feGaussianBlur stdDeviation="2"/>
<feComposite in2="hardAlpha" operator="out"/>
<feColorMatrix type="matrix" values="0 0 0 0 0 0 0 0 0 0 0 0 0 0 0 0 0 0 0.25 0"/>
<feBlend mode="normal" in2="BackgroundImageFix" result="effect1_dropShadow_59_198"/>
<feBlend mode="normal" in="SourceGraphic" in2="effect1_dropShadow_59_198" result="shape"/>
</filter>
</defs>
</svg>
